ISO-10303-21;
HEADER;
FILE_DESCRIPTION(('Open CASCADE Model'),'2;1');
FILE_NAME('Open CASCADE Shape Model','2026-08-07T23:50:02',('Author'),(
    'Open CASCADE'),'Open CASCADE STEP processor 7.9','Open CASCADE 7.9'
  ,'Unknown');
FILE_SCHEMA(('AUTOMOTIVE_DESIGN { 1 0 10303 214 1 1 1 1 }'));
ENDSEC;
DATA;
#1 = APPLICATION_PROTOCOL_DEFINITION('international standard',
  'automotive_design',2000,#2);
#2 = APPLICATION_CONTEXT(
  'core data for automotive mechanical design processes');
#3 = SHAPE_DEFINITION_REPRESENTATION(#4,#10);
#4 = PRODUCT_DEFINITION_SHAPE('','',#5);
#5 = PRODUCT_DEFINITION('design','',#6,#9);
#6 = PRODUCT_DEFINITION_FORMATION('','',#7);
#7 = PRODUCT('Open CASCADE STEP translator 7.9 1',
  'Open CASCADE STEP translator 7.9 1','',(#8));
#8 = PRODUCT_CONTEXT('',#2,'mechanical');
#9 = PRODUCT_DEFINITION_CONTEXT('part definition',#2,'design');
#10 = ADVANCED_BREP_SHAPE_REPRESENTATION('',(#11,#15),#1131);
#11 = AXIS2_PLACEMENT_3D('',#12,#13,#14);
#12 = CARTESIAN_POINT('',(0.,0.,0.));
#13 = DIRECTION('',(0.,0.,1.));
#14 = DIRECTION('',(1.,0.,-0.));
#15 = MANIFOLD_SOLID_BREP('',#16);
#16 = CLOSED_SHELL('',(#17,#54,#109,#148,#534,#569,#624,#679,#718,#722,
    #777,#816,#1029,#1123,#1127));
#17 = ADVANCED_FACE('',(#18),#31,.F.);
#18 = FACE_BOUND('',#19,.F.);
#19 = EDGE_LOOP('',(#20));
#20 = ORIENTED_EDGE('',*,*,#21,.T.);
#21 = EDGE_CURVE('',#22,#22,#24,.T.);
#22 = VERTEX_POINT('',#23);
#23 = CARTESIAN_POINT('',(-127.,39.1,0.));
#24 = SURFACE_CURVE('',#25,(#30,#42),.PCURVE_S1.);
#25 = CIRCLE('',#26,39.1);
#26 = AXIS2_PLACEMENT_3D('',#27,#28,#29);
#27 = CARTESIAN_POINT('',(-127.,0.,0.));
#28 = DIRECTION('',(1.,0.,0.));
#29 = DIRECTION('',(0.,1.,0.));
#30 = PCURVE('',#31,#36);
#31 = PLANE('',#32);
#32 = AXIS2_PLACEMENT_3D('',#33,#34,#35);
#33 = CARTESIAN_POINT('',(-127.,-4.594024592258E-15,7.417108612121E-16)
  );
#34 = DIRECTION('',(1.,0.,0.));
#35 = DIRECTION('',(-0.,0.,1.));
#36 = DEFINITIONAL_REPRESENTATION('',(#37),#41);
#37 = CIRCLE('',#38,39.1);
#38 = AXIS2_PLACEMENT_2D('',#39,#40);
#39 = CARTESIAN_POINT('',(-7.417108612121E-16,-4.594024592258E-15));
#40 = DIRECTION('',(0.,-1.));
#41 = ( GEOMETRIC_REPRESENTATION_CONTEXT(2) 
PARAMETRIC_REPRESENTATION_CONTEXT() REPRESENTATION_CONTEXT('2D SPACE',''
  ) );
#42 = PCURVE('',#43,#48);
#43 = CYLINDRICAL_SURFACE('',#44,39.1);
#44 = AXIS2_PLACEMENT_3D('',#45,#46,#47);
#45 = CARTESIAN_POINT('',(-127.,0.,0.));
#46 = DIRECTION('',(-1.,-0.,-0.));
#47 = DIRECTION('',(0.,1.,0.));
#48 = DEFINITIONAL_REPRESENTATION('',(#49),#53);
#49 = LINE('',#50,#51);
#50 = CARTESIAN_POINT('',(-0.,0.));
#51 = VECTOR('',#52,1.);
#52 = DIRECTION('',(-1.,0.));
#53 = ( GEOMETRIC_REPRESENTATION_CONTEXT(2) 
PARAMETRIC_REPRESENTATION_CONTEXT() REPRESENTATION_CONTEXT('2D SPACE',''
  ) );
#54 = ADVANCED_FACE('',(#55),#43,.T.);
#55 = FACE_BOUND('',#56,.F.);
#56 = EDGE_LOOP('',(#57,#80,#107,#108));
#57 = ORIENTED_EDGE('',*,*,#58,.T.);
#58 = EDGE_CURVE('',#22,#59,#61,.T.);
#59 = VERTEX_POINT('',#60);
#60 = CARTESIAN_POINT('',(-119.,39.1,0.));
#61 = SEAM_CURVE('',#62,(#66,#73),.PCURVE_S1.);
#62 = LINE('',#63,#64);
#63 = CARTESIAN_POINT('',(-127.,39.1,0.));
#64 = VECTOR('',#65,1.);
#65 = DIRECTION('',(1.,0.,0.));
#66 = PCURVE('',#43,#67);
#67 = DEFINITIONAL_REPRESENTATION('',(#68),#72);
#68 = LINE('',#69,#70);
#69 = CARTESIAN_POINT('',(-0.,0.));
#70 = VECTOR('',#71,1.);
#71 = DIRECTION('',(-0.,-1.));
#72 = ( GEOMETRIC_REPRESENTATION_CONTEXT(2) 
PARAMETRIC_REPRESENTATION_CONTEXT() REPRESENTATION_CONTEXT('2D SPACE',''
  ) );
#73 = PCURVE('',#43,#74);
#74 = DEFINITIONAL_REPRESENTATION('',(#75),#79);
#75 = LINE('',#76,#77);
#76 = CARTESIAN_POINT('',(-6.28318530718,0.));
#77 = VECTOR('',#78,1.);
#78 = DIRECTION('',(-0.,-1.));
#79 = ( GEOMETRIC_REPRESENTATION_CONTEXT(2) 
PARAMETRIC_REPRESENTATION_CONTEXT() REPRESENTATION_CONTEXT('2D SPACE',''
  ) );
#80 = ORIENTED_EDGE('',*,*,#81,.T.);
#81 = EDGE_CURVE('',#59,#59,#82,.T.);
#82 = SURFACE_CURVE('',#83,(#88,#95),.PCURVE_S1.);
#83 = CIRCLE('',#84,39.1);
#84 = AXIS2_PLACEMENT_3D('',#85,#86,#87);
#85 = CARTESIAN_POINT('',(-119.,0.,0.));
#86 = DIRECTION('',(1.,0.,0.));
#87 = DIRECTION('',(0.,1.,0.));
#88 = PCURVE('',#43,#89);
#89 = DEFINITIONAL_REPRESENTATION('',(#90),#94);
#90 = LINE('',#91,#92);
#91 = CARTESIAN_POINT('',(-0.,-8.));
#92 = VECTOR('',#93,1.);
#93 = DIRECTION('',(-1.,0.));
#94 = ( GEOMETRIC_REPRESENTATION_CONTEXT(2) 
PARAMETRIC_REPRESENTATION_CONTEXT() REPRESENTATION_CONTEXT('2D SPACE',''
  ) );
#95 = PCURVE('',#96,#101);
#96 = PLANE('',#97);
#97 = AXIS2_PLACEMENT_3D('',#98,#99,#100);
#98 = CARTESIAN_POINT('',(-119.,-2.238265178581E-15,2.880407362274E-15)
  );
#99 = DIRECTION('',(1.,0.,0.));
#100 = DIRECTION('',(-0.,0.,1.));
#101 = DEFINITIONAL_REPRESENTATION('',(#102),#106);
#102 = CIRCLE('',#103,39.1);
#103 = AXIS2_PLACEMENT_2D('',#104,#105);
#104 = CARTESIAN_POINT('',(-2.880407362274E-15,-2.238265178581E-15));
#105 = DIRECTION('',(0.,-1.));
#106 = ( GEOMETRIC_REPRESENTATION_CONTEXT(2) 
PARAMETRIC_REPRESENTATION_CONTEXT() REPRESENTATION_CONTEXT('2D SPACE',''
  ) );
#107 = ORIENTED_EDGE('',*,*,#58,.F.);
#108 = ORIENTED_EDGE('',*,*,#21,.F.);
#109 = ADVANCED_FACE('',(#110,#113),#96,.T.);
#110 = FACE_BOUND('',#111,.T.);
#111 = EDGE_LOOP('',(#112));
#112 = ORIENTED_EDGE('',*,*,#81,.T.);
#113 = FACE_BOUND('',#114,.T.);
#114 = EDGE_LOOP('',(#115));
#115 = ORIENTED_EDGE('',*,*,#116,.T.);
#116 = EDGE_CURVE('',#117,#117,#119,.T.);
#117 = VERTEX_POINT('',#118);
#118 = CARTESIAN_POINT('',(-119.,38.1,0.));
#119 = SURFACE_CURVE('',#120,(#125,#136),.PCURVE_S1.);
#120 = CIRCLE('',#121,38.1);
#121 = AXIS2_PLACEMENT_3D('',#122,#123,#124);
#122 = CARTESIAN_POINT('',(-119.,0.,0.));
#123 = DIRECTION('',(-1.,0.,0.));
#124 = DIRECTION('',(0.,1.,0.));
#125 = PCURVE('',#96,#126);
#126 = DEFINITIONAL_REPRESENTATION('',(#127),#135);
#127 = ( BOUNDED_CURVE() B_SPLINE_CURVE(2,(#128,#129,#130,#131,#132,#133
,#134),.UNSPECIFIED.,.T.,.F.) B_SPLINE_CURVE_WITH_KNOTS((1,2,2,2,2,1),(
    -2.094395102393,0.,2.094395102393,4.188790204786,6.28318530718,
8.377580409573),.UNSPECIFIED.) CURVE() GEOMETRIC_REPRESENTATION_ITEM() 
RATIONAL_B_SPLINE_CURVE((1.,0.5,1.,0.5,1.,0.5,1.)) REPRESENTATION_ITEM(
  '') );
#128 = CARTESIAN_POINT('',(-2.880407362274E-15,-38.1));
#129 = CARTESIAN_POINT('',(-65.99113576837,-38.1));
#130 = CARTESIAN_POINT('',(-32.99556788418,19.05));
#131 = CARTESIAN_POINT('',(-1.221221597178E-14,76.2));
#132 = CARTESIAN_POINT('',(32.995567884187,19.05));
#133 = CARTESIAN_POINT('',(65.991135768374,-38.1));
#134 = CARTESIAN_POINT('',(-2.880407362274E-15,-38.1));
#135 = ( GEOMETRIC_REPRESENTATION_CONTEXT(2) 
PARAMETRIC_REPRESENTATION_CONTEXT() REPRESENTATION_CONTEXT('2D SPACE',''
  ) );
#136 = PCURVE('',#137,#142);
#137 = CYLINDRICAL_SURFACE('',#138,38.1);
#138 = AXIS2_PLACEMENT_3D('',#139,#140,#141);
#139 = CARTESIAN_POINT('',(-127.,0.,0.));
#140 = DIRECTION('',(-1.,-0.,-0.));
#141 = DIRECTION('',(0.,1.,0.));
#142 = DEFINITIONAL_REPRESENTATION('',(#143),#147);
#143 = LINE('',#144,#145);
#144 = CARTESIAN_POINT('',(-6.28318530718,-8.));
#145 = VECTOR('',#146,1.);
#146 = DIRECTION('',(1.,-0.));
#147 = ( GEOMETRIC_REPRESENTATION_CONTEXT(2) 
PARAMETRIC_REPRESENTATION_CONTEXT() REPRESENTATION_CONTEXT('2D SPACE',''
  ) );
#148 = ADVANCED_FACE('',(#149,#207),#137,.T.);
#149 = FACE_BOUND('',#150,.F.);
#150 = EDGE_LOOP('',(#151,#152,#175,#206));
#151 = ORIENTED_EDGE('',*,*,#116,.T.);
#152 = ORIENTED_EDGE('',*,*,#153,.T.);
#153 = EDGE_CURVE('',#117,#154,#156,.T.);
#154 = VERTEX_POINT('',#155);
#155 = CARTESIAN_POINT('',(119.,38.1,0.));
#156 = SEAM_CURVE('',#157,(#161,#168),.PCURVE_S1.);
#157 = LINE('',#158,#159);
#158 = CARTESIAN_POINT('',(-127.,38.1,0.));
#159 = VECTOR('',#160,1.);
#160 = DIRECTION('',(1.,0.,0.));
#161 = PCURVE('',#137,#162);
#162 = DEFINITIONAL_REPRESENTATION('',(#163),#167);
#163 = LINE('',#164,#165);
#164 = CARTESIAN_POINT('',(-6.28318530718,0.));
#165 = VECTOR('',#166,1.);
#166 = DIRECTION('',(-0.,-1.));
#167 = ( GEOMETRIC_REPRESENTATION_CONTEXT(2) 
PARAMETRIC_REPRESENTATION_CONTEXT() REPRESENTATION_CONTEXT('2D SPACE',''
  ) );
#168 = PCURVE('',#137,#169);
#169 = DEFINITIONAL_REPRESENTATION('',(#170),#174);
#170 = LINE('',#171,#172);
#171 = CARTESIAN_POINT('',(-0.,0.));
#172 = VECTOR('',#173,1.);
#173 = DIRECTION('',(-0.,-1.));
#174 = ( GEOMETRIC_REPRESENTATION_CONTEXT(2) 
PARAMETRIC_REPRESENTATION_CONTEXT() REPRESENTATION_CONTEXT('2D SPACE',''
  ) );
#175 = ORIENTED_EDGE('',*,*,#176,.F.);
#176 = EDGE_CURVE('',#154,#154,#177,.T.);
#177 = SURFACE_CURVE('',#178,(#183,#190),.PCURVE_S1.);
#178 = CIRCLE('',#179,38.1);
#179 = AXIS2_PLACEMENT_3D('',#180,#181,#182);
#180 = CARTESIAN_POINT('',(119.,0.,0.));
#181 = DIRECTION('',(-1.,0.,0.));
#182 = DIRECTION('',(0.,1.,0.));
#183 = PCURVE('',#137,#184);
#184 = DEFINITIONAL_REPRESENTATION('',(#185),#189);
#185 = LINE('',#186,#187);
#186 = CARTESIAN_POINT('',(-6.28318530718,-246.));
#187 = VECTOR('',#188,1.);
#188 = DIRECTION('',(1.,-0.));
#189 = ( GEOMETRIC_REPRESENTATION_CONTEXT(2) 
PARAMETRIC_REPRESENTATION_CONTEXT() REPRESENTATION_CONTEXT('2D SPACE',''
  ) );
#190 = PCURVE('',#191,#196);
#191 = PLANE('',#192);
#192 = AXIS2_PLACEMENT_3D('',#193,#194,#195);
#193 = CARTESIAN_POINT('',(119.,-2.238265178581E-15,2.880407362274E-15)
  );
#194 = DIRECTION('',(1.,0.,0.));
#195 = DIRECTION('',(-0.,0.,1.));
#196 = DEFINITIONAL_REPRESENTATION('',(#197),#205);
#197 = ( BOUNDED_CURVE() B_SPLINE_CURVE(2,(#198,#199,#200,#201,#202,#203
,#204),.UNSPECIFIED.,.T.,.F.) B_SPLINE_CURVE_WITH_KNOTS((1,2,2,2,2,1),(
    -2.094395102393,0.,2.094395102393,4.188790204786,6.28318530718,
8.377580409573),.UNSPECIFIED.) CURVE() GEOMETRIC_REPRESENTATION_ITEM() 
RATIONAL_B_SPLINE_CURVE((1.,0.5,1.,0.5,1.,0.5,1.)) REPRESENTATION_ITEM(
  '') );
#198 = CARTESIAN_POINT('',(-2.880407362274E-15,-38.1));
#199 = CARTESIAN_POINT('',(-65.99113576837,-38.1));
#200 = CARTESIAN_POINT('',(-32.99556788418,19.05));
#201 = CARTESIAN_POINT('',(-1.221221597178E-14,76.2));
#202 = CARTESIAN_POINT('',(32.995567884187,19.05));
#203 = CARTESIAN_POINT('',(65.991135768374,-38.1));
#204 = CARTESIAN_POINT('',(-2.880407362274E-15,-38.1));
#205 = ( GEOMETRIC_REPRESENTATION_CONTEXT(2) 
PARAMETRIC_REPRESENTATION_CONTEXT() REPRESENTATION_CONTEXT('2D SPACE',''
  ) );
#206 = ORIENTED_EDGE('',*,*,#153,.F.);
#207 = FACE_BOUND('',#208,.F.);
#208 = EDGE_LOOP('',(#209));
#209 = ORIENTED_EDGE('',*,*,#210,.T.);
#210 = EDGE_CURVE('',#211,#211,#213,.T.);
#211 = VERTEX_POINT('',#212);
#212 = CARTESIAN_POINT('',(6.,-38.1,0.));
#213 = SURFACE_CURVE('',#214,(#317,#423),.PCURVE_S1.);
#214 = B_SPLINE_CURVE_WITH_KNOTS('',6,(#215,#216,#217,#218,#219,#220,
    #221,#222,#223,#224,#225,#226,#227,#228,#229,#230,#231,#232,#233,
    #234,#235,#236,#237,#238,#239,#240,#241,#242,#243,#244,#245,#246,
    #247,#248,#249,#250,#251,#252,#253,#254,#255,#256,#257,#258,#259,
    #260,#261,#262,#263,#264,#265,#266,#267,#268,#269,#270,#271,#272,
    #273,#274,#275,#276,#277,#278,#279,#280,#281,#282,#283,#284,#285,
    #286,#287,#288,#289,#290,#291,#292,#293,#294,#295,#296,#297,#298,
    #299,#300,#301,#302,#303,#304,#305,#306,#307,#308,#309,#310,#311,
    #312,#313,#314,#315,#316),.UNSPECIFIED.,.T.,.F.,(7,5,5,5,5,5,5,5,5,5
    ,5,5,5,5,5,5,5,5,5,5,7),(0.,4.722262402755E-02,7.731079417914E-02,
    0.118093412713,0.178467691301,0.249980448093,0.321493204878,
    0.381867483467,0.422650102,0.468807378267,0.499928383053,
    0.547161464134,0.577256297068,0.618047946583,0.678435599104,
    0.749964191888,0.821492784673,0.881880437194,0.922672085955,
    0.952766918894,1.),.UNSPECIFIED.);
#215 = CARTESIAN_POINT('',(6.,-38.1,1.7763568394E-15));
#216 = CARTESIAN_POINT('',(6.,-38.1,0.360997682798));
#217 = CARTESIAN_POINT('',(5.973936025449,-38.09589551833,0.721171652807
    ));
#218 = CARTESIAN_POINT('',(5.922031825776,-38.08772124547,1.076560312545
    ));
#219 = CARTESIAN_POINT('',(5.845564850895,-38.07581056596,1.423273717263
    ));
#220 = CARTESIAN_POINT('',(5.746834248703,-38.06077452006,1.757699848778
    ));
#221 = CARTESIAN_POINT('',(5.554163546099,-38.03226568493,2.279956640728
    ));
#222 = CARTESIAN_POINT('',(5.471368019643,-38.02018815986,2.477262901431
    ));
#223 = CARTESIAN_POINT('',(5.381371156723,-38.00728662687,2.668318741827
    ));
#224 = CARTESIAN_POINT('',(5.284788916654,-37.99372260244,2.852870302033
    ));
#225 = CARTESIAN_POINT('',(5.182244096523,-37.97965539984,3.030712134835
    ));
#226 = CARTESIAN_POINT('',(4.928146229547,-37.94569312476,3.433432880105
    ));
#227 = CARTESIAN_POINT('',(4.77208855163,-37.92549831504,3.652626742949)
  );
#228 = CARTESIAN_POINT('',(4.607466649309,-37.90499205351,3.859317905185
    ));
#229 = CARTESIAN_POINT('',(4.435402773153,-37.88447313567,4.053636624335
    ));
#230 = CARTESIAN_POINT('',(4.256888485286,-37.8641995179,4.235769546173)
  );
#231 = CARTESIAN_POINT('',(3.800287900473,-37.81506026685,4.65784678526)
  );
#232 = CARTESIAN_POINT('',(3.515435580956,-37.78673204497,4.883651098238
    ));
#233 = CARTESIAN_POINT('',(3.220820323575,-37.76008434336,5.084251571076
    ));
#234 = CARTESIAN_POINT('',(2.918422998504,-37.73561789797,5.260548497837
    ));
#235 = CARTESIAN_POINT('',(2.609774980824,-37.7136964365,5.413349009955)
  );
#236 = CARTESIAN_POINT('',(1.924556276846,-37.67195752664,5.697175890335
    ));
#237 = CARTESIAN_POINT('',(1.545974307609,-37.65327516287,5.818978805774
    ));
#238 = CARTESIAN_POINT('',(1.162567064465,-37.63900025385,5.909655365752
    ));
#239 = CARTESIAN_POINT('',(0.7760944128,-37.62939638774,5.969879274632)
  );
#240 = CARTESIAN_POINT('',(0.388076087197,-37.62459302105,6.));
#241 = CARTESIAN_POINT('',(-0.388076087162,-37.62459302105,6.));
#242 = CARTESIAN_POINT('',(-0.776094412857,-37.62939638774,
    5.969879274638));
#243 = CARTESIAN_POINT('',(-1.162567064462,-37.63900025385,5.90965536573
    ));
#244 = CARTESIAN_POINT('',(-1.545974307556,-37.65327516286,
    5.818978805802));
#245 = CARTESIAN_POINT('',(-1.92455627688,-37.67195752664,5.697175890321
    ));
#246 = CARTESIAN_POINT('',(-2.609774980825,-37.7136964365,5.413349009955
    ));
#247 = CARTESIAN_POINT('',(-2.918422998504,-37.73561789797,
    5.260548497837));
#248 = CARTESIAN_POINT('',(-3.220820323575,-37.76008434336,
    5.084251571076));
#249 = CARTESIAN_POINT('',(-3.515435580956,-37.78673204497,
    4.883651098238));
#250 = CARTESIAN_POINT('',(-3.800287900473,-37.81506026685,4.65784678526
    ));
#251 = CARTESIAN_POINT('',(-4.256888485286,-37.8641995179,4.235769546173
    ));
#252 = CARTESIAN_POINT('',(-4.435402773153,-37.88447313567,
    4.053636624335));
#253 = CARTESIAN_POINT('',(-4.607466649309,-37.90499205351,
    3.859317905185));
#254 = CARTESIAN_POINT('',(-4.77208855163,-37.92549831504,3.652626742949
    ));
#255 = CARTESIAN_POINT('',(-4.928146229548,-37.94569312476,
    3.433432880105));
#256 = CARTESIAN_POINT('',(-5.239857757435,-37.98735594067,
    2.939400008776));
#257 = CARTESIAN_POINT('',(-5.393067297113,-38.00868372194,
    2.660528430525));
#258 = CARTESIAN_POINT('',(-5.531412427354,-38.02863662414,
    2.365909237063));
#259 = CARTESIAN_POINT('',(-5.652494577785,-38.04659606614,2.05670546446
    ));
#260 = CARTESIAN_POINT('',(-5.754103247401,-38.061968371,1.734380484913)
  );
#261 = CARTESIAN_POINT('',(-5.888236985698,-38.08252204655,1.17567325562
    ));
#262 = CARTESIAN_POINT('',(-5.932429746405,-38.08938383097,
    0.945725597766));
#263 = CARTESIAN_POINT('',(-5.966075932292,-38.09465723922,
    0.711964168285));
#264 = CARTESIAN_POINT('',(-5.988684989437,-38.09821831963,
    0.475592999087));
#265 = CARTESIAN_POINT('',(-6.,-38.1,0.237854706087));
#266 = CARTESIAN_POINT('',(-6.,-38.1,-0.36099768292));
#267 = CARTESIAN_POINT('',(-5.973936025431,-38.09589551832,
    -0.721171652774));
#268 = CARTESIAN_POINT('',(-5.922031825798,-38.08772124548,
    -1.076560312427));
#269 = CARTESIAN_POINT('',(-5.845564850924,-38.07581056597,
    -1.423273717232));
#270 = CARTESIAN_POINT('',(-5.746834248661,-38.06077452006,
    -1.757699848891));
#271 = CARTESIAN_POINT('',(-5.554163546101,-38.03226568493,
    -2.279956640724));
#272 = CARTESIAN_POINT('',(-5.471368019642,-38.02018815986,
    -2.477262901432));
#273 = CARTESIAN_POINT('',(-5.381371156722,-38.00728662687,
    -2.668318741831));
#274 = CARTESIAN_POINT('',(-5.284788916653,-37.99372260244,
    -2.852870302034));
#275 = CARTESIAN_POINT('',(-5.182244096525,-37.97965539984,
    -3.030712134832));
#276 = CARTESIAN_POINT('',(-4.928146229548,-37.94569312476,
    -3.433432880105));
#277 = CARTESIAN_POINT('',(-4.77208855163,-37.92549831504,
    -3.652626742949));
#278 = CARTESIAN_POINT('',(-4.607466649309,-37.90499205351,
    -3.859317905185));
#279 = CARTESIAN_POINT('',(-4.435402773153,-37.88447313567,
    -4.053636624335));
#280 = CARTESIAN_POINT('',(-4.256888485286,-37.8641995179,
    -4.235769546173));
#281 = CARTESIAN_POINT('',(-3.80028788,-37.81506026465,-4.657846804185)
  );
#282 = CARTESIAN_POINT('',(-3.515435615892,-37.78673204799,
    -4.883651074238));
#283 = CARTESIAN_POINT('',(-3.220820322294,-37.76008434373,
    -5.084251566755));
#284 = CARTESIAN_POINT('',(-2.918422962973,-37.73561789512,
    -5.260548519793));
#285 = CARTESIAN_POINT('',(-2.609775004079,-37.71369643791,
    -5.413349000323));
#286 = CARTESIAN_POINT('',(-1.924556276846,-37.67195752664,
    -5.697175890335));
#287 = CARTESIAN_POINT('',(-1.545974307609,-37.65327516287,
    -5.818978805774));
#288 = CARTESIAN_POINT('',(-1.162567064465,-37.63900025385,
    -5.909655365751));
#289 = CARTESIAN_POINT('',(-0.7760944128,-37.62939638774,-5.969879274632
    ));
#290 = CARTESIAN_POINT('',(-0.388076087197,-37.62459302105,-6.));
#291 = CARTESIAN_POINT('',(0.388076087197,-37.62459302105,-6.));
#292 = CARTESIAN_POINT('',(0.7760944128,-37.62939638774,-5.969879274632)
  );
#293 = CARTESIAN_POINT('',(1.162567064466,-37.63900025385,
    -5.909655365751));
#294 = CARTESIAN_POINT('',(1.545974307608,-37.65327516287,
    -5.818978805774));
#295 = CARTESIAN_POINT('',(1.924556276846,-37.67195752664,
    -5.697175890334));
#296 = CARTESIAN_POINT('',(2.609775004079,-37.71369643791,
    -5.413349000323));
#297 = CARTESIAN_POINT('',(2.918422962973,-37.73561789512,
    -5.260548519793));
#298 = CARTESIAN_POINT('',(3.220820322295,-37.76008434373,
    -5.084251566755));
#299 = CARTESIAN_POINT('',(3.515435615892,-37.78673204799,
    -4.883651074238));
#300 = CARTESIAN_POINT('',(3.80028788,-37.81506026465,-4.657846804185));
#301 = CARTESIAN_POINT('',(4.256888481886,-37.86419951753,
    -4.235769549316));
#302 = CARTESIAN_POINT('',(4.435402778154,-37.88447313626,
    -4.053636618466));
#303 = CARTESIAN_POINT('',(4.60746664962,-37.90499205351,-3.859317905733
    ));
#304 = CARTESIAN_POINT('',(4.772088546775,-37.92549831445,
    -3.652626749078));
#305 = CARTESIAN_POINT('',(4.928146232273,-37.94569312513,
    -3.433432875785));
#306 = CARTESIAN_POINT('',(5.182244096525,-37.97965539984,
    -3.030712134831));
#307 = CARTESIAN_POINT('',(5.284788916653,-37.99372260244,
    -2.852870302034));
#308 = CARTESIAN_POINT('',(5.381371156722,-38.00728662687,
    -2.668318741831));
#309 = CARTESIAN_POINT('',(5.471368019642,-38.02018815986,
    -2.477262901432));
#310 = CARTESIAN_POINT('',(5.554163546101,-38.03226568493,
    -2.279956640724));
#311 = CARTESIAN_POINT('',(5.746834248703,-38.06077452006,
    -1.757699848777));
#312 = CARTESIAN_POINT('',(5.845564850895,-38.07581056596,
    -1.423273717263));
#313 = CARTESIAN_POINT('',(5.922031825777,-38.08772124547,
    -1.076560312545));
#314 = CARTESIAN_POINT('',(5.973936025449,-38.09589551833,
    -0.721171652807));
#315 = CARTESIAN_POINT('',(6.,-38.1,-0.360997682798));
#316 = CARTESIAN_POINT('',(6.,-38.1,1.7763568394E-15));
#317 = PCURVE('',#137,#318);
#318 = DEFINITIONAL_REPRESENTATION('',(#319),#422);
#319 = B_SPLINE_CURVE_WITH_KNOTS('',6,(#320,#321,#322,#323,#324,#325,
    #326,#327,#328,#329,#330,#331,#332,#333,#334,#335,#336,#337,#338,
    #339,#340,#341,#342,#343,#344,#345,#346,#347,#348,#349,#350,#351,
    #352,#353,#354,#355,#356,#357,#358,#359,#360,#361,#362,#363,#364,
    #365,#366,#367,#368,#369,#370,#371,#372,#373,#374,#375,#376,#377,
    #378,#379,#380,#381,#382,#383,#384,#385,#386,#387,#388,#389,#390,
    #391,#392,#393,#394,#395,#396,#397,#398,#399,#400,#401,#402,#403,
    #404,#405,#406,#407,#408,#409,#410,#411,#412,#413,#414,#415,#416,
    #417,#418,#419,#420,#421),.UNSPECIFIED.,.T.,.F.,(7,5,5,5,5,5,5,5,5,5
    ,5,5,5,5,5,5,5,5,5,5,7),(0.,4.722262402755E-02,7.731079417914E-02,
    0.118093412713,0.178467691301,0.249980448093,0.321493204878,
    0.381867483467,0.422650102,0.468807378267,0.499928383053,
    0.547161464134,0.577256297068,0.618047946583,0.678435599104,
    0.749964191888,0.821492784673,0.881880437194,0.922672085955,
    0.952766918894,1.),.UNSPECIFIED.);
#320 = CARTESIAN_POINT('',(-3.14159265359,-133.));
#321 = CARTESIAN_POINT('',(-3.132117648792,-133.));
#322 = CARTESIAN_POINT('',(-3.122664263011,-132.9739360254));
#323 = CARTESIAN_POINT('',(-3.113334949301,-132.9220318257));
#324 = CARTESIAN_POINT('',(-3.104230290629,-132.8455648508));
#325 = CARTESIAN_POINT('',(-3.095444238949,-132.7468342487));
#326 = CARTESIAN_POINT('',(-3.081716303777,-132.554163546));
#327 = CARTESIAN_POINT('',(-3.076528082155,-132.4713680196));
#328 = CARTESIAN_POINT('',(-3.071502215479,-132.3813711567));
#329 = CARTESIAN_POINT('',(-3.066645394961,-132.2847889166));
#330 = CARTESIAN_POINT('',(-3.061963113647,-132.1822440965));
#331 = CARTESIAN_POINT('',(-3.051355495204,-131.9281462295));
#332 = CARTESIAN_POINT('',(-3.045578182571,-131.7720885516));
#333 = CARTESIAN_POINT('',(-3.04012676884,-131.6074666493));
#334 = CARTESIAN_POINT('',(-3.034998313709,-131.4354027731));
#335 = CARTESIAN_POINT('',(-3.030188459193,-131.2568884852));
#336 = CARTESIAN_POINT('',(-3.019035491567,-130.8002879004));
#337 = CARTESIAN_POINT('',(-3.013062644325,-130.5154355809));
#338 = CARTESIAN_POINT('',(-3.007751463926,-130.2208203235));
#339 = CARTESIAN_POINT('',(-3.003079969699,-129.9184229985));
#340 = CARTESIAN_POINT('',(-2.999028424617,-129.6097749808));
#341 = CARTESIAN_POINT('',(-2.991498779538,-128.9245562768));
#342 = CARTESIAN_POINT('',(-2.988264527372,-128.5459743076));
#343 = CARTESIAN_POINT('',(-2.985855256682,-128.1625670644));
#344 = CARTESIAN_POINT('',(-2.984254605079,-127.7760944128));
#345 = CARTESIAN_POINT('',(-2.983454045333,-127.3880760871));
#346 = CARTESIAN_POINT('',(-2.983454045333,-126.6119239128));
#347 = CARTESIAN_POINT('',(-2.984254605079,-126.2239055871));
#348 = CARTESIAN_POINT('',(-2.985855256682,-125.8374329355));
#349 = CARTESIAN_POINT('',(-2.988264527372,-125.4540256924));
#350 = CARTESIAN_POINT('',(-2.991498779538,-125.0754437231));
#351 = CARTESIAN_POINT('',(-2.999028424617,-124.3902250191));
#352 = CARTESIAN_POINT('',(-3.003079969699,-124.0815770014));
#353 = CARTESIAN_POINT('',(-3.007751463926,-123.7791796764));
#354 = CARTESIAN_POINT('',(-3.013062644325,-123.484564419));
#355 = CARTESIAN_POINT('',(-3.019035491567,-123.1997120995));
#356 = CARTESIAN_POINT('',(-3.030188459193,-122.7431115147));
#357 = CARTESIAN_POINT('',(-3.034998313709,-122.5645972268));
#358 = CARTESIAN_POINT('',(-3.04012676884,-122.3925333506));
#359 = CARTESIAN_POINT('',(-3.045578182571,-122.2279114483));
#360 = CARTESIAN_POINT('',(-3.051355495204,-122.0718537704));
#361 = CARTESIAN_POINT('',(-3.06436826462,-121.7601422425));
#362 = CARTESIAN_POINT('',(-3.071708883928,-121.6069327028));
#363 = CARTESIAN_POINT('',(-3.079458910213,-121.4685875726));
#364 = CARTESIAN_POINT('',(-3.087587562232,-121.3475054222));
#365 = CARTESIAN_POINT('',(-3.096056645209,-121.2458967525));
#366 = CARTESIAN_POINT('',(-3.110730796519,-121.1117630143));
#367 = CARTESIAN_POINT('',(-3.116768709728,-121.0675702535));
#368 = CARTESIAN_POINT('',(-3.122905491229,-121.0339240677));
#369 = CARTESIAN_POINT('',(-3.129109898239,-121.0113150105));
#370 = CARTESIAN_POINT('',(-3.135349747918,-121.));
#371 = CARTESIAN_POINT('',(-3.151067658391,-121.));
#372 = CARTESIAN_POINT('',(-3.160521044168,-121.0260639745));
#373 = CARTESIAN_POINT('',(-3.169850357875,-121.0779681742));
#374 = CARTESIAN_POINT('',(-3.17895501655,-121.154435149));
#375 = CARTESIAN_POINT('',(-3.187741068234,-121.2531657513));
#376 = CARTESIAN_POINT('',(-3.201469003403,-121.4458364538));
#377 = CARTESIAN_POINT('',(-3.206657225025,-121.5286319803));
#378 = CARTESIAN_POINT('',(-3.211683091701,-121.6186288432));
#379 = CARTESIAN_POINT('',(-3.216539912218,-121.7152110833));
#380 = CARTESIAN_POINT('',(-3.221222193533,-121.8177559034));
#381 = CARTESIAN_POINT('',(-3.231829811975,-122.0718537704));
#382 = CARTESIAN_POINT('',(-3.237607124609,-122.2279114483));
#383 = CARTESIAN_POINT('',(-3.243058538339,-122.3925333506));
#384 = CARTESIAN_POINT('',(-3.248186993471,-122.5645972268));
#385 = CARTESIAN_POINT('',(-3.252996847987,-122.7431115147));
#386 = CARTESIAN_POINT('',(-3.264149816113,-123.19971212));
#387 = CARTESIAN_POINT('',(-3.27012266222,-123.4845643841));
#388 = CARTESIAN_POINT('',(-3.27543384314,-123.7791796777));
#389 = CARTESIAN_POINT('',(-3.280105338062,-124.081577037));
#390 = CARTESIAN_POINT('',(-3.284156882307,-124.3902249959));
#391 = CARTESIAN_POINT('',(-3.291686527642,-125.0754437231));
#392 = CARTESIAN_POINT('',(-3.294920779807,-125.4540256923));
#393 = CARTESIAN_POINT('',(-3.297330050498,-125.8374329355));
#394 = CARTESIAN_POINT('',(-3.298930702101,-126.2239055872));
#395 = CARTESIAN_POINT('',(-3.299731261847,-126.6119239128));
#396 = CARTESIAN_POINT('',(-3.299731261847,-127.3880760871));
#397 = CARTESIAN_POINT('',(-3.298930702101,-127.7760944128));
#398 = CARTESIAN_POINT('',(-3.297330050498,-128.1625670644));
#399 = CARTESIAN_POINT('',(-3.294920779807,-128.5459743076));
#400 = CARTESIAN_POINT('',(-3.291686527642,-128.9245562768));
#401 = CARTESIAN_POINT('',(-3.284156882307,-129.609775004));
#402 = CARTESIAN_POINT('',(-3.280105338062,-129.9184229629));
#403 = CARTESIAN_POINT('',(-3.27543384314,-130.2208203222));
#404 = CARTESIAN_POINT('',(-3.27012266222,-130.5154356158));
#405 = CARTESIAN_POINT('',(-3.264149816113,-130.80028788));
#406 = CARTESIAN_POINT('',(-3.25299684807,-131.2568884818));
#407 = CARTESIAN_POINT('',(-3.248186993316,-131.4354027781));
#408 = CARTESIAN_POINT('',(-3.243058538354,-131.6074666496));
#409 = CARTESIAN_POINT('',(-3.23760712477,-131.7720885467));
#410 = CARTESIAN_POINT('',(-3.231829811861,-131.9281462322));
#411 = CARTESIAN_POINT('',(-3.221222193533,-132.1822440965));
#412 = CARTESIAN_POINT('',(-3.216539912218,-132.2847889166));
#413 = CARTESIAN_POINT('',(-3.211683091701,-132.3813711567));
#414 = CARTESIAN_POINT('',(-3.206657225025,-132.4713680196));
#415 = CARTESIAN_POINT('',(-3.201469003403,-132.5541635461));
#416 = CARTESIAN_POINT('',(-3.187741068231,-132.7468342487));
#417 = CARTESIAN_POINT('',(-3.178955016551,-132.8455648508));
#418 = CARTESIAN_POINT('',(-3.169850357878,-132.9220318257));
#419 = CARTESIAN_POINT('',(-3.160521044168,-132.9739360254));
#420 = CARTESIAN_POINT('',(-3.151067658388,-133.));
#421 = CARTESIAN_POINT('',(-3.14159265359,-133.));
#422 = ( GEOMETRIC_REPRESENTATION_CONTEXT(2) 
PARAMETRIC_REPRESENTATION_CONTEXT() REPRESENTATION_CONTEXT('2D SPACE',''
  ) );
#423 = PCURVE('',#424,#429);
#424 = CYLINDRICAL_SURFACE('',#425,6.);
#425 = AXIS2_PLACEMENT_3D('',#426,#427,#428);
#426 = CARTESIAN_POINT('',(0.,-37.1,0.));
#427 = DIRECTION('',(-0.,1.,-0.));
#428 = DIRECTION('',(1.,0.,0.));
#429 = DEFINITIONAL_REPRESENTATION('',(#430),#533);
#430 = B_SPLINE_CURVE_WITH_KNOTS('',6,(#431,#432,#433,#434,#435,#436,
    #437,#438,#439,#440,#441,#442,#443,#444,#445,#446,#447,#448,#449,
    #450,#451,#452,#453,#454,#455,#456,#457,#458,#459,#460,#461,#462,
    #463,#464,#465,#466,#467,#468,#469,#470,#471,#472,#473,#474,#475,
    #476,#477,#478,#479,#480,#481,#482,#483,#484,#485,#486,#487,#488,
    #489,#490,#491,#492,#493,#494,#495,#496,#497,#498,#499,#500,#501,
    #502,#503,#504,#505,#506,#507,#508,#509,#510,#511,#512,#513,#514,
    #515,#516,#517,#518,#519,#520,#521,#522,#523,#524,#525,#526,#527,
    #528,#529,#530,#531,#532),.UNSPECIFIED.,.F.,.F.,(7,5,5,5,5,5,5,5,5,5
    ,5,5,5,5,5,5,5,5,5,5,7),(0.,4.722262402755E-02,7.731079417914E-02,
    0.118093412713,0.178467691301,0.249980448093,0.321493204878,
    0.381867483467,0.422650102,0.468807378267,0.499928383053,
    0.547161464134,0.577256297068,0.618047946583,0.678435599104,
    0.749964191888,0.821492784673,0.881880437194,0.922672085955,
    0.952766918894,1.),.UNSPECIFIED.);
#431 = CARTESIAN_POINT('',(0.,-1.));
#432 = CARTESIAN_POINT('',(-6.016628046638E-02,-1.));
#433 = CARTESIAN_POINT('',(-0.120195269846,-0.99589551833));
#434 = CARTESIAN_POINT('',(-0.179818788671,-0.987721245476));
#435 = CARTESIAN_POINT('',(-0.238771408334,-0.975810565966));
#436 = CARTESIAN_POINT('',(-0.296759408796,-0.960774520066));
#437 = CARTESIAN_POINT('',(-0.389536644447,-0.932265684937));
#438 = CARTESIAN_POINT('',(-0.425164648999,-0.920188159864));
#439 = CARTESIAN_POINT('',(-0.460315419609,-0.907286626872));
#440 = CARTESIAN_POINT('',(-0.494987311085,-0.893722602448));
#441 = CARTESIAN_POINT('',(-0.529174833282,-0.879655399846));
#442 = CARTESIAN_POINT('',(-0.608538574771,-0.845693124766));
#443 = CARTESIAN_POINT('',(-0.653314139228,-0.825498315042));
#444 = CARTESIAN_POINT('',(-0.697260255737,-0.804992053511));
#445 = CARTESIAN_POINT('',(-0.740434042664,-0.784473135676));
#446 = CARTESIAN_POINT('',(-0.782887153392,-0.764199517902));
#447 = CARTESIAN_POINT('',(-0.886520225361,-0.715060266853));
#448 = CARTESIAN_POINT('',(-0.946928847446,-0.686732044974));
#449 = CARTESIAN_POINT('',(-1.006105437749,-0.660084343365));
#450 = CARTESIAN_POINT('',(-1.064239789323,-0.63561789797));
#451 = CARTESIAN_POINT('',(-1.121510793509,-0.613696436501));
#452 = CARTESIAN_POINT('',(-1.245123356956,-0.571957526646));
#453 = CARTESIAN_POINT('',(-1.311186083236,-0.55327516287));
#454 = CARTESIAN_POINT('',(-1.376548283154,-0.539000253853));
#455 = CARTESIAN_POINT('',(-1.441447210194,-0.529396387748));
#456 = CARTESIAN_POINT('',(-1.506116978929,-0.524593021055));
#457 = CARTESIAN_POINT('',(-1.635475674655,-0.524593021055));
#458 = CARTESIAN_POINT('',(-1.700145443405,-0.529396387747));
#459 = CARTESIAN_POINT('',(-1.765044370436,-0.539000253856));
#460 = CARTESIAN_POINT('',(-1.830406570344,-0.553275162866));
#461 = CARTESIAN_POINT('',(-1.89646929664,-0.571957526648));
#462 = CARTESIAN_POINT('',(-2.020081860081,-0.613696436501));
#463 = CARTESIAN_POINT('',(-2.077352864267,-0.63561789797));
#464 = CARTESIAN_POINT('',(-2.135487215841,-0.660084343365));
#465 = CARTESIAN_POINT('',(-2.194663806144,-0.686732044974));
#466 = CARTESIAN_POINT('',(-2.255072428229,-0.715060266853));
#467 = CARTESIAN_POINT('',(-2.358705500198,-0.764199517902));
#468 = CARTESIAN_POINT('',(-2.401158610925,-0.784473135676));
#469 = CARTESIAN_POINT('',(-2.444332397853,-0.804992053511));
#470 = CARTESIAN_POINT('',(-2.488278514362,-0.825498315042));
#471 = CARTESIAN_POINT('',(-2.533054078819,-0.845693124766));
#472 = CARTESIAN_POINT('',(-2.630412602182,-0.887355940679));
#473 = CARTESIAN_POINT('',(-2.683346553533,-0.908683721945));
#474 = CARTESIAN_POINT('',(-2.737427158532,-0.928636624141));
#475 = CARTESIAN_POINT('',(-2.792584789731,-0.946596066142));
#476 = CARTESIAN_POINT('',(-2.848774756604,-0.961968371001));
#477 = CARTESIAN_POINT('',(-2.944538590506,-0.982522046552));
#478 = CARTESIAN_POINT('',(-2.983523723625,-0.989383830978));
#479 = CARTESIAN_POINT('',(-3.022819814927,-0.994657239222));
#480 = CARTESIAN_POINT('',(-3.0623271563,-0.998218319637));
#481 = CARTESIAN_POINT('',(-3.101950202575,-1.));
#482 = CARTESIAN_POINT('',(-3.201758934076,-1.));
#483 = CARTESIAN_POINT('',(-3.26178792343,-0.995895518328));
#484 = CARTESIAN_POINT('',(-3.321411442242,-0.98772124548));
#485 = CARTESIAN_POINT('',(-3.380364061917,-0.97581056597));
#486 = CARTESIAN_POINT('',(-3.438352062406,-0.96077452006));
#487 = CARTESIAN_POINT('',(-3.531129298036,-0.932265684937));
#488 = CARTESIAN_POINT('',(-3.566757302589,-0.920188159864));
#489 = CARTESIAN_POINT('',(-3.6019080732,-0.907286626872));
#490 = CARTESIAN_POINT('',(-3.636579964675,-0.893722602447));
#491 = CARTESIAN_POINT('',(-3.670767486871,-0.879655399846));
#492 = CARTESIAN_POINT('',(-3.750131228361,-0.845693124766));
#493 = CARTESIAN_POINT('',(-3.794906792817,-0.825498315042));
#494 = CARTESIAN_POINT('',(-3.838852909327,-0.804992053511));
#495 = CARTESIAN_POINT('',(-3.882026696254,-0.784473135676));
#496 = CARTESIAN_POINT('',(-3.924479806981,-0.764199517902));
#497 = CARTESIAN_POINT('',(-4.028112883597,-0.71506026465));
#498 = CARTESIAN_POINT('',(-4.088521493881,-0.686732047998));
#499 = CARTESIAN_POINT('',(-4.147698091127,-0.660084343731));
#500 = CARTESIAN_POINT('',(-4.205832449966,-0.63561789512));
#501 = CARTESIAN_POINT('',(-4.263103442904,-0.613696437917));
#502 = CARTESIAN_POINT('',(-4.386716010545,-0.571957526646));
#503 = CARTESIAN_POINT('',(-4.452778736826,-0.55327516287));
#504 = CARTESIAN_POINT('',(-4.518140936744,-0.539000253853));
#505 = CARTESIAN_POINT('',(-4.583039863784,-0.529396387748));
#506 = CARTESIAN_POINT('',(-4.647709632519,-0.524593021055));
#507 = CARTESIAN_POINT('',(-4.777068328251,-0.524593021055));
#508 = CARTESIAN_POINT('',(-4.841738096985,-0.529396387748));
#509 = CARTESIAN_POINT('',(-4.906637024026,-0.539000253853));
#510 = CARTESIAN_POINT('',(-4.971999223944,-0.55327516287));
#511 = CARTESIAN_POINT('',(-5.038061950224,-0.571957526646));
#512 = CARTESIAN_POINT('',(-5.161674517866,-0.613696437917));
#513 = CARTESIAN_POINT('',(-5.218945510804,-0.63561789512));
#514 = CARTESIAN_POINT('',(-5.277079869642,-0.660084343731));
#515 = CARTESIAN_POINT('',(-5.336256466888,-0.686732047998));
#516 = CARTESIAN_POINT('',(-5.396665077172,-0.71506026465));
#517 = CARTESIAN_POINT('',(-5.500298153016,-0.764199517537));
#518 = CARTESIAN_POINT('',(-5.542751265809,-0.784473136265));
#519 = CARTESIAN_POINT('',(-5.585925051405,-0.804992053512));
#520 = CARTESIAN_POINT('',(-5.62987116664,-0.825498314452));
#521 = CARTESIAN_POINT('',(-5.67464673326,-0.84569312513));
#522 = CARTESIAN_POINT('',(-5.754010473898,-0.879655399846));
#523 = CARTESIAN_POINT('',(-5.788197996094,-0.893722602447));
#524 = CARTESIAN_POINT('',(-5.822869887569,-0.907286626872));
#525 = CARTESIAN_POINT('',(-5.85802065818,-0.920188159864));
#526 = CARTESIAN_POINT('',(-5.893648662734,-0.932265684937));
#527 = CARTESIAN_POINT('',(-5.986425898384,-0.960774520066));
#528 = CARTESIAN_POINT('',(-6.044413898846,-0.975810565966));
#529 = CARTESIAN_POINT('',(-6.103366518508,-0.987721245476));
#530 = CARTESIAN_POINT('',(-6.162990037334,-0.99589551833));
#531 = CARTESIAN_POINT('',(-6.223019026713,-1.));
#532 = CARTESIAN_POINT('',(-6.28318530718,-1.));
#533 = ( GEOMETRIC_REPRESENTATION_CONTEXT(2) 
PARAMETRIC_REPRESENTATION_CONTEXT() REPRESENTATION_CONTEXT('2D SPACE',''
  ) );
#534 = ADVANCED_FACE('',(#535,#566),#191,.F.);
#535 = FACE_BOUND('',#536,.F.);
#536 = EDGE_LOOP('',(#537));
#537 = ORIENTED_EDGE('',*,*,#538,.T.);
#538 = EDGE_CURVE('',#539,#539,#541,.T.);
#539 = VERTEX_POINT('',#540);
#540 = CARTESIAN_POINT('',(119.,39.1,0.));
#541 = SURFACE_CURVE('',#542,(#547,#554),.PCURVE_S1.);
#542 = CIRCLE('',#543,39.1);
#543 = AXIS2_PLACEMENT_3D('',#544,#545,#546);
#544 = CARTESIAN_POINT('',(119.,0.,0.));
#545 = DIRECTION('',(1.,0.,0.));
#546 = DIRECTION('',(0.,1.,0.));
#547 = PCURVE('',#191,#548);
#548 = DEFINITIONAL_REPRESENTATION('',(#549),#553);
#549 = CIRCLE('',#550,39.1);
#550 = AXIS2_PLACEMENT_2D('',#551,#552);
#551 = CARTESIAN_POINT('',(-2.880407362274E-15,-2.238265178581E-15));
#552 = DIRECTION('',(0.,-1.));
#553 = ( GEOMETRIC_REPRESENTATION_CONTEXT(2) 
PARAMETRIC_REPRESENTATION_CONTEXT() REPRESENTATION_CONTEXT('2D SPACE',''
  ) );
#554 = PCURVE('',#555,#560);
#555 = CYLINDRICAL_SURFACE('',#556,39.1);
#556 = AXIS2_PLACEMENT_3D('',#557,#558,#559);
#557 = CARTESIAN_POINT('',(119.,0.,0.));
#558 = DIRECTION('',(-1.,-0.,-0.));
#559 = DIRECTION('',(0.,1.,0.));
#560 = DEFINITIONAL_REPRESENTATION('',(#561),#565);
#561 = LINE('',#562,#563);
#562 = CARTESIAN_POINT('',(-0.,0.));
#563 = VECTOR('',#564,1.);
#564 = DIRECTION('',(-1.,0.));
#565 = ( GEOMETRIC_REPRESENTATION_CONTEXT(2) 
PARAMETRIC_REPRESENTATION_CONTEXT() REPRESENTATION_CONTEXT('2D SPACE',''
  ) );
#566 = FACE_BOUND('',#567,.F.);
#567 = EDGE_LOOP('',(#568));
#568 = ORIENTED_EDGE('',*,*,#176,.T.);
#569 = ADVANCED_FACE('',(#570),#424,.T.);
#570 = FACE_BOUND('',#571,.F.);
#571 = EDGE_LOOP('',(#572,#573,#596,#623));
#572 = ORIENTED_EDGE('',*,*,#210,.F.);
#573 = ORIENTED_EDGE('',*,*,#574,.T.);
#574 = EDGE_CURVE('',#211,#575,#577,.T.);
#575 = VERTEX_POINT('',#576);
#576 = CARTESIAN_POINT('',(6.,-51.1,0.));
#577 = SEAM_CURVE('',#578,(#582,#589),.PCURVE_S1.);
#578 = LINE('',#579,#580);
#579 = CARTESIAN_POINT('',(6.,-37.1,0.));
#580 = VECTOR('',#581,1.);
#581 = DIRECTION('',(0.,-1.,0.));
#582 = PCURVE('',#424,#583);
#583 = DEFINITIONAL_REPRESENTATION('',(#584),#588);
#584 = LINE('',#585,#586);
#585 = CARTESIAN_POINT('',(-6.28318530718,0.));
#586 = VECTOR('',#587,1.);
#587 = DIRECTION('',(-0.,-1.));
#588 = ( GEOMETRIC_REPRESENTATION_CONTEXT(2) 
PARAMETRIC_REPRESENTATION_CONTEXT() REPRESENTATION_CONTEXT('2D SPACE',''
  ) );
#589 = PCURVE('',#424,#590);
#590 = DEFINITIONAL_REPRESENTATION('',(#591),#595);
#591 = LINE('',#592,#593);
#592 = CARTESIAN_POINT('',(-0.,0.));
#593 = VECTOR('',#594,1.);
#594 = DIRECTION('',(-0.,-1.));
#595 = ( GEOMETRIC_REPRESENTATION_CONTEXT(2) 
PARAMETRIC_REPRESENTATION_CONTEXT() REPRESENTATION_CONTEXT('2D SPACE',''
  ) );
#596 = ORIENTED_EDGE('',*,*,#597,.T.);
#597 = EDGE_CURVE('',#575,#575,#598,.T.);
#598 = SURFACE_CURVE('',#599,(#604,#611),.PCURVE_S1.);
#599 = CIRCLE('',#600,6.);
#600 = AXIS2_PLACEMENT_3D('',#601,#602,#603);
#601 = CARTESIAN_POINT('',(0.,-51.1,0.));
#602 = DIRECTION('',(0.,-1.,0.));
#603 = DIRECTION('',(1.,0.,0.));
#604 = PCURVE('',#424,#605);
#605 = DEFINITIONAL_REPRESENTATION('',(#606),#610);
#606 = LINE('',#607,#608);
#607 = CARTESIAN_POINT('',(-0.,-14.));
#608 = VECTOR('',#609,1.);
#609 = DIRECTION('',(-1.,0.));
#610 = ( GEOMETRIC_REPRESENTATION_CONTEXT(2) 
PARAMETRIC_REPRESENTATION_CONTEXT() REPRESENTATION_CONTEXT('2D SPACE',''
  ) );
#611 = PCURVE('',#612,#617);
#612 = PLANE('',#613);
#613 = AXIS2_PLACEMENT_3D('',#614,#615,#616);
#614 = CARTESIAN_POINT('',(-3.418600331349E-16,-51.1,-1.70226710729E-17)
  );
#615 = DIRECTION('',(-0.,-1.,-0.));
#616 = DIRECTION('',(0.,0.,-1.));
#617 = DEFINITIONAL_REPRESENTATION('',(#618),#622);
#618 = CIRCLE('',#619,6.);
#619 = AXIS2_PLACEMENT_2D('',#620,#621);
#620 = CARTESIAN_POINT('',(-1.70226710729E-17,3.418600331349E-16));
#621 = DIRECTION('',(0.,1.));
#622 = ( GEOMETRIC_REPRESENTATION_CONTEXT(2) 
PARAMETRIC_REPRESENTATION_CONTEXT() REPRESENTATION_CONTEXT('2D SPACE',''
  ) );
#623 = ORIENTED_EDGE('',*,*,#574,.F.);
#624 = ADVANCED_FACE('',(#625),#555,.T.);
#625 = FACE_BOUND('',#626,.F.);
#626 = EDGE_LOOP('',(#627,#650,#677,#678));
#627 = ORIENTED_EDGE('',*,*,#628,.T.);
#628 = EDGE_CURVE('',#539,#629,#631,.T.);
#629 = VERTEX_POINT('',#630);
#630 = CARTESIAN_POINT('',(127.,39.1,0.));
#631 = SEAM_CURVE('',#632,(#636,#643),.PCURVE_S1.);
#632 = LINE('',#633,#634);
#633 = CARTESIAN_POINT('',(119.,39.1,0.));
#634 = VECTOR('',#635,1.);
#635 = DIRECTION('',(1.,0.,0.));
#636 = PCURVE('',#555,#637);
#637 = DEFINITIONAL_REPRESENTATION('',(#638),#642);
#638 = LINE('',#639,#640);
#639 = CARTESIAN_POINT('',(-0.,0.));
#640 = VECTOR('',#641,1.);
#641 = DIRECTION('',(-0.,-1.));
#642 = ( GEOMETRIC_REPRESENTATION_CONTEXT(2) 
PARAMETRIC_REPRESENTATION_CONTEXT() REPRESENTATION_CONTEXT('2D SPACE',''
  ) );
#643 = PCURVE('',#555,#644);
#644 = DEFINITIONAL_REPRESENTATION('',(#645),#649);
#645 = LINE('',#646,#647);
#646 = CARTESIAN_POINT('',(-6.28318530718,0.));
#647 = VECTOR('',#648,1.);
#648 = DIRECTION('',(-0.,-1.));
#649 = ( GEOMETRIC_REPRESENTATION_CONTEXT(2) 
PARAMETRIC_REPRESENTATION_CONTEXT() REPRESENTATION_CONTEXT('2D SPACE',''
  ) );
#650 = ORIENTED_EDGE('',*,*,#651,.T.);
#651 = EDGE_CURVE('',#629,#629,#652,.T.);
#652 = SURFACE_CURVE('',#653,(#658,#665),.PCURVE_S1.);
#653 = CIRCLE('',#654,39.1);
#654 = AXIS2_PLACEMENT_3D('',#655,#656,#657);
#655 = CARTESIAN_POINT('',(127.,0.,0.));
#656 = DIRECTION('',(1.,0.,0.));
#657 = DIRECTION('',(0.,1.,0.));
#658 = PCURVE('',#555,#659);
#659 = DEFINITIONAL_REPRESENTATION('',(#660),#664);
#660 = LINE('',#661,#662);
#661 = CARTESIAN_POINT('',(-0.,-8.));
#662 = VECTOR('',#663,1.);
#663 = DIRECTION('',(-1.,0.));
#664 = ( GEOMETRIC_REPRESENTATION_CONTEXT(2) 
PARAMETRIC_REPRESENTATION_CONTEXT() REPRESENTATION_CONTEXT('2D SPACE',''
  ) );
#665 = PCURVE('',#666,#671);
#666 = PLANE('',#667);
#667 = AXIS2_PLACEMENT_3D('',#668,#669,#670);
#668 = CARTESIAN_POINT('',(127.,-2.238265178581E-15,2.880407362274E-15)
  );
#669 = DIRECTION('',(1.,0.,0.));
#670 = DIRECTION('',(-0.,0.,1.));
#671 = DEFINITIONAL_REPRESENTATION('',(#672),#676);
#672 = CIRCLE('',#673,39.1);
#673 = AXIS2_PLACEMENT_2D('',#674,#675);
#674 = CARTESIAN_POINT('',(-2.880407362274E-15,-2.238265178581E-15));
#675 = DIRECTION('',(0.,-1.));
#676 = ( GEOMETRIC_REPRESENTATION_CONTEXT(2) 
PARAMETRIC_REPRESENTATION_CONTEXT() REPRESENTATION_CONTEXT('2D SPACE',''
  ) );
#677 = ORIENTED_EDGE('',*,*,#628,.F.);
#678 = ORIENTED_EDGE('',*,*,#538,.F.);
#679 = ADVANCED_FACE('',(#680,#683),#612,.T.);
#680 = FACE_BOUND('',#681,.T.);
#681 = EDGE_LOOP('',(#682));
#682 = ORIENTED_EDGE('',*,*,#597,.T.);
#683 = FACE_BOUND('',#684,.T.);
#684 = EDGE_LOOP('',(#685));
#685 = ORIENTED_EDGE('',*,*,#686,.T.);
#686 = EDGE_CURVE('',#687,#687,#689,.T.);
#687 = VERTEX_POINT('',#688);
#688 = CARTESIAN_POINT('',(1.5875,-51.1,0.));
#689 = SURFACE_CURVE('',#690,(#695,#706),.PCURVE_S1.);
#690 = CIRCLE('',#691,1.5875);
#691 = AXIS2_PLACEMENT_3D('',#692,#693,#694);
#692 = CARTESIAN_POINT('',(0.,-51.1,0.));
#693 = DIRECTION('',(-0.,1.,0.));
#694 = DIRECTION('',(1.,0.,0.));
#695 = PCURVE('',#612,#696);
#696 = DEFINITIONAL_REPRESENTATION('',(#697),#705);
#697 = ( BOUNDED_CURVE() B_SPLINE_CURVE(2,(#698,#699,#700,#701,#702,#703
,#704),.UNSPECIFIED.,.T.,.F.) B_SPLINE_CURVE_WITH_KNOTS((1,2,2,2,2,1),(
    -2.094395102393,0.,2.094395102393,4.188790204786,6.28318530718,
8.377580409573),.UNSPECIFIED.) CURVE() GEOMETRIC_REPRESENTATION_ITEM() 
RATIONAL_B_SPLINE_CURVE((1.,0.5,1.,0.5,1.,0.5,1.)) REPRESENTATION_ITEM(
  '') );
#698 = CARTESIAN_POINT('',(-1.70226710729E-17,1.5875));
#699 = CARTESIAN_POINT('',(2.749630657016,1.5875));
#700 = CARTESIAN_POINT('',(1.374815328508,-0.79375));
#701 = CARTESIAN_POINT('',(3.718026876564E-16,-3.175));
#702 = CARTESIAN_POINT('',(-1.374815328508,-0.79375));
#703 = CARTESIAN_POINT('',(-2.749630657016,1.5875));
#704 = CARTESIAN_POINT('',(-1.70226710729E-17,1.5875));
#705 = ( GEOMETRIC_REPRESENTATION_CONTEXT(2) 
PARAMETRIC_REPRESENTATION_CONTEXT() REPRESENTATION_CONTEXT('2D SPACE',''
  ) );
#706 = PCURVE('',#707,#712);
#707 = CYLINDRICAL_SURFACE('',#708,1.5875);
#708 = AXIS2_PLACEMENT_3D('',#709,#710,#711);
#709 = CARTESIAN_POINT('',(0.,-50.1,0.));
#710 = DIRECTION('',(-0.,1.,-0.));
#711 = DIRECTION('',(1.,0.,0.));
#712 = DEFINITIONAL_REPRESENTATION('',(#713),#717);
#713 = LINE('',#714,#715);
#714 = CARTESIAN_POINT('',(-6.28318530718,-1.));
#715 = VECTOR('',#716,1.);
#716 = DIRECTION('',(1.,-0.));
#717 = ( GEOMETRIC_REPRESENTATION_CONTEXT(2) 
PARAMETRIC_REPRESENTATION_CONTEXT() REPRESENTATION_CONTEXT('2D SPACE',''
  ) );
#718 = ADVANCED_FACE('',(#719),#666,.T.);
#719 = FACE_BOUND('',#720,.T.);
#720 = EDGE_LOOP('',(#721));
#721 = ORIENTED_EDGE('',*,*,#651,.T.);
#722 = ADVANCED_FACE('',(#723),#707,.T.);
#723 = FACE_BOUND('',#724,.F.);
#724 = EDGE_LOOP('',(#725,#726,#749,#776));
#725 = ORIENTED_EDGE('',*,*,#686,.T.);
#726 = ORIENTED_EDGE('',*,*,#727,.T.);
#727 = EDGE_CURVE('',#687,#728,#730,.T.);
#728 = VERTEX_POINT('',#729);
#729 = CARTESIAN_POINT('',(1.5875,-58.1,0.));
#730 = SEAM_CURVE('',#731,(#735,#742),.PCURVE_S1.);
#731 = LINE('',#732,#733);
#732 = CARTESIAN_POINT('',(1.5875,-50.1,0.));
#733 = VECTOR('',#734,1.);
#734 = DIRECTION('',(0.,-1.,0.));
#735 = PCURVE('',#707,#736);
#736 = DEFINITIONAL_REPRESENTATION('',(#737),#741);
#737 = LINE('',#738,#739);
#738 = CARTESIAN_POINT('',(-6.28318530718,0.));
#739 = VECTOR('',#740,1.);
#740 = DIRECTION('',(-0.,-1.));
#741 = ( GEOMETRIC_REPRESENTATION_CONTEXT(2) 
PARAMETRIC_REPRESENTATION_CONTEXT() REPRESENTATION_CONTEXT('2D SPACE',''
  ) );
#742 = PCURVE('',#707,#743);
#743 = DEFINITIONAL_REPRESENTATION('',(#744),#748);
#744 = LINE('',#745,#746);
#745 = CARTESIAN_POINT('',(-0.,0.));
#746 = VECTOR('',#747,1.);
#747 = DIRECTION('',(-0.,-1.));
#748 = ( GEOMETRIC_REPRESENTATION_CONTEXT(2) 
PARAMETRIC_REPRESENTATION_CONTEXT() REPRESENTATION_CONTEXT('2D SPACE',''
  ) );
#749 = ORIENTED_EDGE('',*,*,#750,.T.);
#750 = EDGE_CURVE('',#728,#728,#751,.T.);
#751 = SURFACE_CURVE('',#752,(#757,#764),.PCURVE_S1.);
#752 = CIRCLE('',#753,1.5875);
#753 = AXIS2_PLACEMENT_3D('',#754,#755,#756);
#754 = CARTESIAN_POINT('',(0.,-58.1,0.));
#755 = DIRECTION('',(0.,-1.,0.));
#756 = DIRECTION('',(1.,0.,0.));
#757 = PCURVE('',#707,#758);
#758 = DEFINITIONAL_REPRESENTATION('',(#759),#763);
#759 = LINE('',#760,#761);
#760 = CARTESIAN_POINT('',(-0.,-8.));
#761 = VECTOR('',#762,1.);
#762 = DIRECTION('',(-1.,0.));
#763 = ( GEOMETRIC_REPRESENTATION_CONTEXT(2) 
PARAMETRIC_REPRESENTATION_CONTEXT() REPRESENTATION_CONTEXT('2D SPACE',''
  ) );
#764 = PCURVE('',#765,#770);
#765 = PLANE('',#766);
#766 = AXIS2_PLACEMENT_3D('',#767,#768,#769);
#767 = CARTESIAN_POINT('',(0.,-58.1,1.505406763072E-16));
#768 = DIRECTION('',(-0.,-1.,-0.));
#769 = DIRECTION('',(0.,0.,-1.));
#770 = DEFINITIONAL_REPRESENTATION('',(#771),#775);
#771 = CIRCLE('',#772,1.5875);
#772 = AXIS2_PLACEMENT_2D('',#773,#774);
#773 = CARTESIAN_POINT('',(1.505406763072E-16,0.));
#774 = DIRECTION('',(0.,1.));
#775 = ( GEOMETRIC_REPRESENTATION_CONTEXT(2) 
PARAMETRIC_REPRESENTATION_CONTEXT() REPRESENTATION_CONTEXT('2D SPACE',''
  ) );
#776 = ORIENTED_EDGE('',*,*,#727,.F.);
#777 = ADVANCED_FACE('',(#778,#781),#765,.T.);
#778 = FACE_BOUND('',#779,.T.);
#779 = EDGE_LOOP('',(#780));
#780 = ORIENTED_EDGE('',*,*,#750,.T.);
#781 = FACE_BOUND('',#782,.T.);
#782 = EDGE_LOOP('',(#783));
#783 = ORIENTED_EDGE('',*,*,#784,.T.);
#784 = EDGE_CURVE('',#785,#785,#787,.T.);
#785 = VERTEX_POINT('',#786);
#786 = CARTESIAN_POINT('',(1.1875,-58.1,0.));
#787 = SURFACE_CURVE('',#788,(#793,#804),.PCURVE_S1.);
#788 = CIRCLE('',#789,1.1875);
#789 = AXIS2_PLACEMENT_3D('',#790,#791,#792);
#790 = CARTESIAN_POINT('',(0.,-58.1,0.));
#791 = DIRECTION('',(-0.,1.,0.));
#792 = DIRECTION('',(1.,0.,0.));
#793 = PCURVE('',#765,#794);
#794 = DEFINITIONAL_REPRESENTATION('',(#795),#803);
#795 = ( BOUNDED_CURVE() B_SPLINE_CURVE(2,(#796,#797,#798,#799,#800,#801
,#802),.UNSPECIFIED.,.T.,.F.) B_SPLINE_CURVE_WITH_KNOTS((1,2,2,2,2,1),(
    -2.094395102393,0.,2.094395102393,4.188790204786,6.28318530718,
8.377580409573),.UNSPECIFIED.) CURVE() GEOMETRIC_REPRESENTATION_ITEM() 
RATIONAL_B_SPLINE_CURVE((1.,0.5,1.,0.5,1.,0.5,1.)) REPRESENTATION_ITEM(
  '') );
#796 = CARTESIAN_POINT('',(1.505406763072E-16,1.1875));
#797 = CARTESIAN_POINT('',(2.056810333988,1.1875));
#798 = CARTESIAN_POINT('',(1.028405166994,-0.59375));
#799 = CARTESIAN_POINT('',(4.413942911047E-16,-2.375));
#800 = CARTESIAN_POINT('',(-1.028405166994,-0.59375));
#801 = CARTESIAN_POINT('',(-2.056810333988,1.1875));
#802 = CARTESIAN_POINT('',(1.505406763072E-16,1.1875));
#803 = ( GEOMETRIC_REPRESENTATION_CONTEXT(2) 
PARAMETRIC_REPRESENTATION_CONTEXT() REPRESENTATION_CONTEXT('2D SPACE',''
  ) );
#804 = PCURVE('',#805,#810);
#805 = CYLINDRICAL_SURFACE('',#806,1.1875);
#806 = AXIS2_PLACEMENT_3D('',#807,#808,#809);
#807 = CARTESIAN_POINT('',(0.,-36.1,0.));
#808 = DIRECTION('',(-0.,1.,-0.));
#809 = DIRECTION('',(1.,0.,0.));
#810 = DEFINITIONAL_REPRESENTATION('',(#811),#815);
#811 = LINE('',#812,#813);
#812 = CARTESIAN_POINT('',(-6.28318530718,-22.));
#813 = VECTOR('',#814,1.);
#814 = DIRECTION('',(1.,-0.));
#815 = ( GEOMETRIC_REPRESENTATION_CONTEXT(2) 
PARAMETRIC_REPRESENTATION_CONTEXT() REPRESENTATION_CONTEXT('2D SPACE',''
  ) );
#816 = ADVANCED_FACE('',(#817),#805,.F.);
#817 = FACE_BOUND('',#818,.T.);
#818 = EDGE_LOOP('',(#819,#1006,#1027,#1028));
#819 = ORIENTED_EDGE('',*,*,#820,.F.);
#820 = EDGE_CURVE('',#821,#821,#823,.T.);
#821 = VERTEX_POINT('',#822);
#822 = CARTESIAN_POINT('',(1.1875,-36.6,0.));
#823 = SURFACE_CURVE('',#824,(#881,#941),.PCURVE_S1.);
#824 = B_SPLINE_CURVE_WITH_KNOTS('',7,(#825,#826,#827,#828,#829,#830,
    #831,#832,#833,#834,#835,#836,#837,#838,#839,#840,#841,#842,#843,
    #844,#845,#846,#847,#848,#849,#850,#851,#852,#853,#854,#855,#856,
    #857,#858,#859,#860,#861,#862,#863,#864,#865,#866,#867,#868,#869,
    #870,#871,#872,#873,#874,#875,#876,#877,#878,#879,#880),
  .UNSPECIFIED.,.T.,.F.,(8,6,6,6,6,6,6,6,6,8),(0.,0.135137180695,
    0.24930197406,0.363464861043,0.459770475857,0.557742815239,
    0.667619148601,0.750306616068,0.864669177694,1.),.UNSPECIFIED.);
#825 = CARTESIAN_POINT('',(1.1875,-36.6,1.554312234475E-15));
#826 = CARTESIAN_POINT('',(1.1875,-36.6,0.166590252416));
#827 = CARTESIAN_POINT('',(1.160234743155,-36.59911534814,0.329575501111
    ));
#828 = CARTESIAN_POINT('',(1.107827090455,-36.59741508114,0.483696281887
    ));
#829 = CARTESIAN_POINT('',(1.03355718273,-36.59513283477,0.624433548002)
  );
#830 = CARTESIAN_POINT('',(0.941779255266,-36.59261200427,0.748259008097
    ));
#831 = CARTESIAN_POINT('',(0.837816331079,-36.59015833686,0.852992704545
    ));
#832 = CARTESIAN_POINT('',(0.63490751089,-36.58612196802,1.010384918977)
  );
#833 = CARTESIAN_POINT('',(0.535971060726,-36.58442902598,1.069933891697
    ));
#834 = CARTESIAN_POINT('',(0.432693167846,-36.58298936054,1.117191916122
    ));
#835 = CARTESIAN_POINT('',(0.326407779923,-36.58186949508,1.15241113099)
  );
#836 = CARTESIAN_POINT('',(0.218219897303,-36.58111018279,1.175804709066
    ));
#837 = CARTESIAN_POINT('',(0.109105656491,-36.58073049776,1.1875));
#838 = CARTESIAN_POINT('',(-0.109103834589,-36.58073049776,1.1875));
#839 = CARTESIAN_POINT('',(-0.218217433226,-36.58111017398,
    1.175805088915));
#840 = CARTESIAN_POINT('',(-0.326406121704,-36.58186946969,
    1.152411832217));
#841 = CARTESIAN_POINT('',(-0.432693251358,-36.58298934696,
    1.117192341102));
#842 = CARTESIAN_POINT('',(-0.535972795342,-36.58442905053,
    1.069933277074));
#843 = CARTESIAN_POINT('',(-0.634909576411,-36.58612200911,
    1.010383316794));
#844 = CARTESIAN_POINT('',(-0.806210583369,-36.58952961872,
    0.877508635475));
#845 = CARTESIAN_POINT('',(-0.880705600683,-36.59120733619,
    0.807488709722));
#846 = CARTESIAN_POINT('',(-0.949726828851,-36.59293703273,0.72833455294
    ));
#847 = CARTESIAN_POINT('',(-1.011714921708,-36.59463140339,
    0.640403851056));
#848 = CARTESIAN_POINT('',(-1.065141552309,-36.59618946242,
    0.544304062583));
#849 = CARTESIAN_POINT('',(-1.108509634747,-36.59750844818,
    0.440892897937));
#850 = CARTESIAN_POINT('',(-1.172738896198,-36.59950972575,
    0.219814329941));
#851 = CARTESIAN_POINT('',(-1.193005147997,-36.60017463384,
    0.102592463441));
#852 = CARTESIAN_POINT('',(-1.199477950439,-36.60039805524,
    -1.77404549511E-02));
#853 = CARTESIAN_POINT('',(-1.191517052431,-36.6001299574,
    -0.138210540237));
#854 = CARTESIAN_POINT('',(-1.169499930199,-36.59939811096,
    -0.25578702622));
#855 = CARTESIAN_POINT('',(-1.134811285167,-36.59830076938,
    -0.367675863834));
#856 = CARTESIAN_POINT('',(-1.039391001413,-36.59545921562,
    -0.588179129405));
#857 = CARTESIAN_POINT('',(-0.975982285077,-36.593651925,-0.694802184493
    ));
#858 = CARTESIAN_POINT('',(-0.901952611277,-36.59168469355,
    -0.790551526505));
#859 = CARTESIAN_POINT('',(-0.819405355535,-36.58970060543,
    -0.874887972652));
#860 = CARTESIAN_POINT('',(-0.730258243081,-36.58782069994,
    -0.947563723192));
#861 = CARTESIAN_POINT('',(-0.63628088277,-36.58613477403,
    -1.008561104393));
#862 = CARTESIAN_POINT('',(-0.465990539921,-36.58362536839,
    -1.095328367877));
#863 = CARTESIAN_POINT('',(-0.390825188953,-36.58268822969,
    -1.126200629732));
#864 = CARTESIAN_POINT('',(-0.314117984986,-36.58191594244,
    -1.150783505113));
#865 = CARTESIAN_POINT('',(-0.236303867191,-36.58132587803,
    -1.169158535657));
#866 = CARTESIAN_POINT('',(-0.157771979301,-36.58092899484,
    -1.181386236463));
#867 = CARTESIAN_POINT('',(-7.888525444752E-02,-36.58073049776,-1.1875)
  );
#868 = CARTESIAN_POINT('',(0.109103834589,-36.58073049776,-1.1875));
#869 = CARTESIAN_POINT('',(0.218217433226,-36.58111017398,
    -1.175805088915));
#870 = CARTESIAN_POINT('',(0.326406121704,-36.58186946969,
    -1.152411832217));
#871 = CARTESIAN_POINT('',(0.432693251358,-36.58298934696,
    -1.117192341102));
#872 = CARTESIAN_POINT('',(0.535972795342,-36.58442905053,
    -1.069933277074));
#873 = CARTESIAN_POINT('',(0.634909576411,-36.58612200911,
    -1.010383316794));
#874 = CARTESIAN_POINT('',(0.837781015339,-36.59015763434,
    -0.853020098241));
#875 = CARTESIAN_POINT('',(0.941763342174,-36.59261143923,
    -0.748286843742));
#876 = CARTESIAN_POINT('',(1.033571780023,-36.59513310111,
    -0.624432727834));
#877 = CARTESIAN_POINT('',(1.107856830229,-36.59741604909,
    -0.483653285585));
#878 = CARTESIAN_POINT('',(1.160255899358,-36.59911603413,
    -0.329502068623));
#879 = CARTESIAN_POINT('',(1.1875,-36.6,-0.166525609738));
#880 = CARTESIAN_POINT('',(1.1875,-36.6,1.554312234475E-15));
#881 = PCURVE('',#805,#882);
#882 = DEFINITIONAL_REPRESENTATION('',(#883),#940);
#883 = B_SPLINE_CURVE_WITH_KNOTS('',7,(#884,#885,#886,#887,#888,#889,
    #890,#891,#892,#893,#894,#895,#896,#897,#898,#899,#900,#901,#902,
    #903,#904,#905,#906,#907,#908,#909,#910,#911,#912,#913,#914,#915,
    #916,#917,#918,#919,#920,#921,#922,#923,#924,#925,#926,#927,#928,
    #929,#930,#931,#932,#933,#934,#935,#936,#937,#938,#939),
  .UNSPECIFIED.,.F.,.F.,(8,6,6,6,6,6,6,6,6,8),(0.,0.135137180695,
    0.24930197406,0.363464861043,0.459770475857,0.557742815239,
    0.667619148601,0.750306616068,0.864669177694,1.),.UNSPECIFIED.);
#884 = CARTESIAN_POINT('',(8.881784197001E-16,-0.5));
#885 = CARTESIAN_POINT('',(-0.14028652835,-0.5));
#886 = CARTESIAN_POINT('',(-0.277537244602,-0.499115348141));
#887 = CARTESIAN_POINT('',(-0.41183254626,-0.497415081148));
#888 = CARTESIAN_POINT('',(-0.542999224912,-0.495132834777));
#889 = CARTESIAN_POINT('',(-0.670608483285,-0.492612004277));
#890 = CARTESIAN_POINT('',(-0.79384121428,-0.490158336862));
#891 = CARTESIAN_POINT('',(-1.010090662485,-0.486121968023));
#892 = CARTESIAN_POINT('',(-1.106658282459,-0.484429025982));
#893 = CARTESIAN_POINT('',(-1.201353437516,-0.482989360544));
#894 = CARTESIAN_POINT('',(-1.294661504073,-0.481869495084));
#895 = CARTESIAN_POINT('',(-1.387031539097,-0.481110182798));
#896 = CARTESIAN_POINT('',(-1.478917879224,-0.480730497763));
#897 = CARTESIAN_POINT('',(-1.662673240133,-0.480730497763));
#898 = CARTESIAN_POINT('',(-1.754559113424,-0.481110173981));
#899 = CARTESIAN_POINT('',(-1.846929663471,-0.481869469699));
#900 = CARTESIAN_POINT('',(-1.940239093772,-0.482989346966));
#901 = CARTESIAN_POINT('',(-2.034935888156,-0.484429050539));
#902 = CARTESIAN_POINT('',(-2.131504192428,-0.486122009112));
#903 = CARTESIAN_POINT('',(-2.314067711337,-0.489529618726));
#904 = CARTESIAN_POINT('',(-2.399775885644,-0.491207336192));
#905 = CARTESIAN_POINT('',(-2.48750799606,-0.492937032734));
#906 = CARTESIAN_POINT('',(-2.577217861961,-0.494631403396));
#907 = CARTESIAN_POINT('',(-2.668931926408,-0.496189462422));
#908 = CARTESIAN_POINT('',(-2.762746294223,-0.497508448187));
#909 = CARTESIAN_POINT('',(-2.956615553657,-0.499509725756));
#910 = CARTESIAN_POINT('',(-3.056169752769,-0.500174633842));
#911 = CARTESIAN_POINT('',(-3.156528893505,-0.500398055244));
#912 = CARTESIAN_POINT('',(-3.256905239887,-0.5001299574));
#913 = CARTESIAN_POINT('',(-3.356556509121,-0.49939811096));
#914 = CARTESIAN_POINT('',(-3.454629859915,-0.498300769386));
#915 = CARTESIAN_POINT('',(-3.656957317913,-0.495459215628));
#916 = CARTESIAN_POINT('',(-3.760567622052,-0.493651925005));
#917 = CARTESIAN_POINT('',(-3.861321457345,-0.491684693555));
#918 = CARTESIAN_POINT('',(-3.959545633249,-0.489700605433));
#919 = CARTESIAN_POINT('',(-4.055482139499,-0.487820699949));
#920 = CARTESIAN_POINT('',(-4.149315759851,-0.486134774039));
#921 = CARTESIAN_POINT('',(-4.310260029152,-0.483625368396));
#922 = CARTESIAN_POINT('',(-4.378461271675,-0.482688229691));
#923 = CARTESIAN_POINT('',(-4.445952863929,-0.481915942441));
#924 = CARTESIAN_POINT('',(-4.51291736715,-0.481325878033));
#925 = CARTESIAN_POINT('',(-4.579528583944,-0.48092899484));
#926 = CARTESIAN_POINT('',(-4.645959292429,-0.480730497763));
#927 = CARTESIAN_POINT('',(-4.804265893723,-0.480730497763));
#928 = CARTESIAN_POINT('',(-4.896151767014,-0.481110173981));
#929 = CARTESIAN_POINT('',(-4.98852231706,-0.481869469699));
#930 = CARTESIAN_POINT('',(-5.081831747362,-0.482989346966));
#931 = CARTESIAN_POINT('',(-5.176528541746,-0.484429050539));
#932 = CARTESIAN_POINT('',(-5.273096846018,-0.486122009112));
#933 = CARTESIAN_POINT('',(-5.489306455259,-0.490157634343));
#934 = CARTESIAN_POINT('',(-5.612551879704,-0.492611439239));
#935 = CARTESIAN_POINT('',(-5.740193630007,-0.495133101118));
#936 = CARTESIAN_POINT('',(-5.871394159137,-0.49741604909));
#937 = CARTESIAN_POINT('',(-6.005709911658,-0.499116034131));
#938 = CARTESIAN_POINT('',(-6.142953214769,-0.5));
#939 = CARTESIAN_POINT('',(-6.28318530718,-0.5));
#940 = ( GEOMETRIC_REPRESENTATION_CONTEXT(2) 
PARAMETRIC_REPRESENTATION_CONTEXT() REPRESENTATION_CONTEXT('2D SPACE',''
  ) );
#941 = PCURVE('',#942,#947);
#942 = CYLINDRICAL_SURFACE('',#943,36.6);
#943 = AXIS2_PLACEMENT_3D('',#944,#945,#946);
#944 = CARTESIAN_POINT('',(-125.5,0.,0.));
#945 = DIRECTION('',(-1.,-0.,-0.));
#946 = DIRECTION('',(0.,1.,0.));
#947 = DEFINITIONAL_REPRESENTATION('',(#948),#1005);
#948 = B_SPLINE_CURVE_WITH_KNOTS('',7,(#949,#950,#951,#952,#953,#954,
    #955,#956,#957,#958,#959,#960,#961,#962,#963,#964,#965,#966,#967,
    #968,#969,#970,#971,#972,#973,#974,#975,#976,#977,#978,#979,#980,
    #981,#982,#983,#984,#985,#986,#987,#988,#989,#990,#991,#992,#993,
    #994,#995,#996,#997,#998,#999,#1000,#1001,#1002,#1003,#1004),
  .UNSPECIFIED.,.T.,.F.,(8,6,6,6,6,6,6,6,6,8),(0.,0.135137180695,
    0.24930197406,0.363464861043,0.459770475857,0.557742815239,
    0.667619148601,0.750306616068,0.864669177694,1.),.UNSPECIFIED.);
#949 = CARTESIAN_POINT('',(-3.14159265359,-126.6875));
#950 = CARTESIAN_POINT('',(-3.137041007349,-126.6875));
#951 = CARTESIAN_POINT('',(-3.132587858222,-126.6602347431));
#952 = CARTESIAN_POINT('',(-3.128376755334,-126.6078270904));
#953 = CARTESIAN_POINT('',(-3.124531038522,-126.5335571827));
#954 = CARTESIAN_POINT('',(-3.121147153622,-126.4417792552));
#955 = CARTESIAN_POINT('',(-3.118284799278,-126.337816331));
#956 = CARTESIAN_POINT('',(-3.113983051659,-126.1349075108));
#957 = CARTESIAN_POINT('',(-3.11235537944,-126.0359710607));
#958 = CARTESIAN_POINT('',(-3.111063580177,-125.9326931678));
#959 = CARTESIAN_POINT('',(-3.110100820318,-125.8264077799));
#960 = CARTESIAN_POINT('',(-3.109461314997,-125.7182198973));
#961 = CARTESIAN_POINT('',(-3.109141603157,-125.6091056564));
#962 = CARTESIAN_POINT('',(-3.109141603157,-125.3908961654));
#963 = CARTESIAN_POINT('',(-3.109461304618,-125.2817825667));
#964 = CARTESIAN_POINT('',(-3.110100801145,-125.1735938782));
#965 = CARTESIAN_POINT('',(-3.111063568557,-125.0673067486));
#966 = CARTESIAN_POINT('',(-3.112355396247,-124.9640272046));
#967 = CARTESIAN_POINT('',(-3.113983095449,-124.8650904235));
#968 = CARTESIAN_POINT('',(-3.117614744867,-124.6937894166));
#969 = CARTESIAN_POINT('',(-3.119528403866,-124.6192943993));
#970 = CARTESIAN_POINT('',(-3.121691594356,-124.5502731711));
#971 = CARTESIAN_POINT('',(-3.124094501962,-124.4882850782));
#972 = CARTESIAN_POINT('',(-3.12672050124,-124.4348584476));
#973 = CARTESIAN_POINT('',(-3.129546153246,-124.3914903652));
#974 = CARTESIAN_POINT('',(-3.135586798763,-124.3272611038));
#975 = CARTESIAN_POINT('',(-3.13878961578,-124.306994852));
#976 = CARTESIAN_POINT('',(-3.142077365248,-124.3005220495));
#977 = CARTESIAN_POINT('',(-3.145368859093,-124.3084829475));
#978 = CARTESIAN_POINT('',(-3.148581357894,-124.3305000698));
#979 = CARTESIAN_POINT('',(-3.151638563042,-124.3651887148));
#980 = CARTESIAN_POINT('',(-3.157663742656,-124.4606089985));
#981 = CARTESIAN_POINT('',(-3.160577335135,-124.5240177149));
#982 = CARTESIAN_POINT('',(-3.16319396619,-124.5980473887));
#983 = CARTESIAN_POINT('',(-3.165498864692,-124.6805946444));
#984 = CARTESIAN_POINT('',(-3.167485200481,-124.7697417569));
#985 = CARTESIAN_POINT('',(-3.169152430525,-124.8637191172));
#986 = CARTESIAN_POINT('',(-3.171524112036,-125.03400946));
#987 = CARTESIAN_POINT('',(-3.172368004217,-125.109174811));
#988 = CARTESIAN_POINT('',(-3.173039998308,-125.185882015));
#989 = CARTESIAN_POINT('',(-3.173542307091,-125.2636961328));
#990 = CARTESIAN_POINT('',(-3.173876573372,-125.3422280206));
#991 = CARTESIAN_POINT('',(-3.174043704023,-125.4211147455));
#992 = CARTESIAN_POINT('',(-3.174043704023,-125.6091038345));
#993 = CARTESIAN_POINT('',(-3.173724002561,-125.7182174332));
#994 = CARTESIAN_POINT('',(-3.173084506034,-125.8264061217));
#995 = CARTESIAN_POINT('',(-3.172121738622,-125.9326932513));
#996 = CARTESIAN_POINT('',(-3.170829910932,-126.0359727953));
#997 = CARTESIAN_POINT('',(-3.169202211731,-126.1349095764));
#998 = CARTESIAN_POINT('',(-3.164901256609,-126.3377810153));
#999 = CARTESIAN_POINT('',(-3.162038914246,-126.4417633421));
#1000 = CARTESIAN_POINT('',(-3.158654246066,-126.53357178));
#1001 = CARTESIAN_POINT('',(-3.154807376891,-126.6078568302));
#1002 = CARTESIAN_POINT('',(-3.150595442606,-126.6602558993));
#1003 = CARTESIAN_POINT('',(-3.146142533637,-126.6875));
#1004 = CARTESIAN_POINT('',(-3.14159265359,-126.6875));
#1005 = ( GEOMETRIC_REPRESENTATION_CONTEXT(2) 
PARAMETRIC_REPRESENTATION_CONTEXT() REPRESENTATION_CONTEXT('2D SPACE',''
  ) );
#1006 = ORIENTED_EDGE('',*,*,#1007,.T.);
#1007 = EDGE_CURVE('',#821,#785,#1008,.T.);
#1008 = SEAM_CURVE('',#1009,(#1013,#1020),.PCURVE_S1.);
#1009 = LINE('',#1010,#1011);
#1010 = CARTESIAN_POINT('',(1.1875,-36.1,0.));
#1011 = VECTOR('',#1012,1.);
#1012 = DIRECTION('',(0.,-1.,0.));
#1013 = PCURVE('',#805,#1014);
#1014 = DEFINITIONAL_REPRESENTATION('',(#1015),#1019);
#1015 = LINE('',#1016,#1017);
#1016 = CARTESIAN_POINT('',(-6.28318530718,0.));
#1017 = VECTOR('',#1018,1.);
#1018 = DIRECTION('',(-0.,-1.));
#1019 = ( GEOMETRIC_REPRESENTATION_CONTEXT(2) 
PARAMETRIC_REPRESENTATION_CONTEXT() REPRESENTATION_CONTEXT('2D SPACE',''
  ) );
#1020 = PCURVE('',#805,#1021);
#1021 = DEFINITIONAL_REPRESENTATION('',(#1022),#1026);
#1022 = LINE('',#1023,#1024);
#1023 = CARTESIAN_POINT('',(-0.,0.));
#1024 = VECTOR('',#1025,1.);
#1025 = DIRECTION('',(-0.,-1.));
#1026 = ( GEOMETRIC_REPRESENTATION_CONTEXT(2) 
PARAMETRIC_REPRESENTATION_CONTEXT() REPRESENTATION_CONTEXT('2D SPACE',''
  ) );
#1027 = ORIENTED_EDGE('',*,*,#784,.F.);
#1028 = ORIENTED_EDGE('',*,*,#1007,.F.);
#1029 = ADVANCED_FACE('',(#1030,#1120),#942,.F.);
#1030 = FACE_BOUND('',#1031,.T.);
#1031 = EDGE_LOOP('',(#1032,#1065,#1088,#1119));
#1032 = ORIENTED_EDGE('',*,*,#1033,.T.);
#1033 = EDGE_CURVE('',#1034,#1034,#1036,.T.);
#1034 = VERTEX_POINT('',#1035);
#1035 = CARTESIAN_POINT('',(-119.,36.6,0.));
#1036 = SURFACE_CURVE('',#1037,(#1042,#1049),.PCURVE_S1.);
#1037 = CIRCLE('',#1038,36.6);
#1038 = AXIS2_PLACEMENT_3D('',#1039,#1040,#1041);
#1039 = CARTESIAN_POINT('',(-119.,0.,0.));
#1040 = DIRECTION('',(-1.,0.,0.));
#1041 = DIRECTION('',(0.,1.,0.));
#1042 = PCURVE('',#942,#1043);
#1043 = DEFINITIONAL_REPRESENTATION('',(#1044),#1048);
#1044 = LINE('',#1045,#1046);
#1045 = CARTESIAN_POINT('',(-6.28318530718,-6.5));
#1046 = VECTOR('',#1047,1.);
#1047 = DIRECTION('',(1.,-0.));
#1048 = ( GEOMETRIC_REPRESENTATION_CONTEXT(2) 
PARAMETRIC_REPRESENTATION_CONTEXT() REPRESENTATION_CONTEXT('2D SPACE',''
  ) );
#1049 = PCURVE('',#1050,#1055);
#1050 = PLANE('',#1051);
#1051 = AXIS2_PLACEMENT_3D('',#1052,#1053,#1054);
#1052 = CARTESIAN_POINT('',(-119.,-2.238265178581E-15,2.880407362274E-15
    ));
#1053 = DIRECTION('',(1.,0.,0.));
#1054 = DIRECTION('',(-0.,0.,1.));
#1055 = DEFINITIONAL_REPRESENTATION('',(#1056),#1064);
#1056 = ( BOUNDED_CURVE() B_SPLINE_CURVE(2,(#1057,#1058,#1059,#1060,
#1061,#1062,#1063),.UNSPECIFIED.,.T.,.F.) B_SPLINE_CURVE_WITH_KNOTS((1,2
    ,2,2,2,1),(-2.094395102393,0.,2.094395102393,4.188790204786,
6.28318530718,8.377580409573),.UNSPECIFIED.) CURVE() 
GEOMETRIC_REPRESENTATION_ITEM() RATIONAL_B_SPLINE_CURVE((1.,0.5,1.,0.5,
1.,0.5,1.)) REPRESENTATION_ITEM('') );
#1057 = CARTESIAN_POINT('',(-2.880407362274E-15,-36.6));
#1058 = CARTESIAN_POINT('',(-63.39305955702,-36.6));
#1059 = CARTESIAN_POINT('',(-31.69652977851,18.3));
#1060 = CARTESIAN_POINT('',(-1.184482193203E-14,73.2));
#1061 = CARTESIAN_POINT('',(31.69652977851,18.3));
#1062 = CARTESIAN_POINT('',(63.393059557021,-36.6));
#1063 = CARTESIAN_POINT('',(-2.880407362274E-15,-36.6));
#1064 = ( GEOMETRIC_REPRESENTATION_CONTEXT(2) 
PARAMETRIC_REPRESENTATION_CONTEXT() REPRESENTATION_CONTEXT('2D SPACE',''
  ) );
#1065 = ORIENTED_EDGE('',*,*,#1066,.T.);
#1066 = EDGE_CURVE('',#1034,#1067,#1069,.T.);
#1067 = VERTEX_POINT('',#1068);
#1068 = CARTESIAN_POINT('',(119.,36.6,0.));
#1069 = SEAM_CURVE('',#1070,(#1074,#1081),.PCURVE_S1.);
#1070 = LINE('',#1071,#1072);
#1071 = CARTESIAN_POINT('',(-125.5,36.6,0.));
#1072 = VECTOR('',#1073,1.);
#1073 = DIRECTION('',(1.,0.,0.));
#1074 = PCURVE('',#942,#1075);
#1075 = DEFINITIONAL_REPRESENTATION('',(#1076),#1080);
#1076 = LINE('',#1077,#1078);
#1077 = CARTESIAN_POINT('',(-6.28318530718,0.));
#1078 = VECTOR('',#1079,1.);
#1079 = DIRECTION('',(-0.,-1.));
#1080 = ( GEOMETRIC_REPRESENTATION_CONTEXT(2) 
PARAMETRIC_REPRESENTATION_CONTEXT() REPRESENTATION_CONTEXT('2D SPACE',''
  ) );
#1081 = PCURVE('',#942,#1082);
#1082 = DEFINITIONAL_REPRESENTATION('',(#1083),#1087);
#1083 = LINE('',#1084,#1085);
#1084 = CARTESIAN_POINT('',(-0.,0.));
#1085 = VECTOR('',#1086,1.);
#1086 = DIRECTION('',(-0.,-1.));
#1087 = ( GEOMETRIC_REPRESENTATION_CONTEXT(2) 
PARAMETRIC_REPRESENTATION_CONTEXT() REPRESENTATION_CONTEXT('2D SPACE',''
  ) );
#1088 = ORIENTED_EDGE('',*,*,#1089,.F.);
#1089 = EDGE_CURVE('',#1067,#1067,#1090,.T.);
#1090 = SURFACE_CURVE('',#1091,(#1096,#1103),.PCURVE_S1.);
#1091 = CIRCLE('',#1092,36.6);
#1092 = AXIS2_PLACEMENT_3D('',#1093,#1094,#1095);
#1093 = CARTESIAN_POINT('',(119.,0.,0.));
#1094 = DIRECTION('',(-1.,0.,0.));
#1095 = DIRECTION('',(0.,1.,0.));
#1096 = PCURVE('',#942,#1097);
#1097 = DEFINITIONAL_REPRESENTATION('',(#1098),#1102);
#1098 = LINE('',#1099,#1100);
#1099 = CARTESIAN_POINT('',(-6.28318530718,-244.5));
#1100 = VECTOR('',#1101,1.);
#1101 = DIRECTION('',(1.,-0.));
#1102 = ( GEOMETRIC_REPRESENTATION_CONTEXT(2) 
PARAMETRIC_REPRESENTATION_CONTEXT() REPRESENTATION_CONTEXT('2D SPACE',''
  ) );
#1103 = PCURVE('',#1104,#1109);
#1104 = PLANE('',#1105);
#1105 = AXIS2_PLACEMENT_3D('',#1106,#1107,#1108);
#1106 = CARTESIAN_POINT('',(119.,-2.238265178581E-15,2.880407362274E-15)
  );
#1107 = DIRECTION('',(1.,0.,0.));
#1108 = DIRECTION('',(-0.,0.,1.));
#1109 = DEFINITIONAL_REPRESENTATION('',(#1110),#1118);
#1110 = ( BOUNDED_CURVE() B_SPLINE_CURVE(2,(#1111,#1112,#1113,#1114,
#1115,#1116,#1117),.UNSPECIFIED.,.T.,.F.) B_SPLINE_CURVE_WITH_KNOTS((1,2
    ,2,2,2,1),(-2.094395102393,0.,2.094395102393,4.188790204786,
6.28318530718,8.377580409573),.UNSPECIFIED.) CURVE() 
GEOMETRIC_REPRESENTATION_ITEM() RATIONAL_B_SPLINE_CURVE((1.,0.5,1.,0.5,
1.,0.5,1.)) REPRESENTATION_ITEM('') );
#1111 = CARTESIAN_POINT('',(-2.880407362274E-15,-36.6));
#1112 = CARTESIAN_POINT('',(-63.39305955702,-36.6));
#1113 = CARTESIAN_POINT('',(-31.69652977851,18.3));
#1114 = CARTESIAN_POINT('',(-1.184482193203E-14,73.2));
#1115 = CARTESIAN_POINT('',(31.69652977851,18.3));
#1116 = CARTESIAN_POINT('',(63.393059557021,-36.6));
#1117 = CARTESIAN_POINT('',(-2.880407362274E-15,-36.6));
#1118 = ( GEOMETRIC_REPRESENTATION_CONTEXT(2) 
PARAMETRIC_REPRESENTATION_CONTEXT() REPRESENTATION_CONTEXT('2D SPACE',''
  ) );
#1119 = ORIENTED_EDGE('',*,*,#1066,.F.);
#1120 = FACE_BOUND('',#1121,.T.);
#1121 = EDGE_LOOP('',(#1122));
#1122 = ORIENTED_EDGE('',*,*,#820,.T.);
#1123 = ADVANCED_FACE('',(#1124),#1050,.T.);
#1124 = FACE_BOUND('',#1125,.T.);
#1125 = EDGE_LOOP('',(#1126));
#1126 = ORIENTED_EDGE('',*,*,#1033,.F.);
#1127 = ADVANCED_FACE('',(#1128),#1104,.F.);
#1128 = FACE_BOUND('',#1129,.F.);
#1129 = EDGE_LOOP('',(#1130));
#1130 = ORIENTED_EDGE('',*,*,#1089,.F.);
#1131 = ( GEOMETRIC_REPRESENTATION_CONTEXT(3) 
GLOBAL_UNCERTAINTY_ASSIGNED_CONTEXT((#1135)) 
GLOBAL_UNIT_ASSIGNED_CONTEXT((#1132,#1133,#1134)) REPRESENTATION_CONTEXT
('Context #1','3D Context with UNIT and UNCERTAINTY') );
#1132 = ( LENGTH_UNIT() NAMED_UNIT(*) SI_UNIT(.MILLI.,.METRE.) );
#1133 = ( NAMED_UNIT(*) PLANE_ANGLE_UNIT() SI_UNIT($,.RADIAN.) );
#1134 = ( NAMED_UNIT(*) SI_UNIT($,.STERADIAN.) SOLID_ANGLE_UNIT() );
#1135 = UNCERTAINTY_MEASURE_WITH_UNIT(LENGTH_MEASURE(1.E-07),#1132,
  'distance_accuracy_value','confusion accuracy');
#1136 = PRODUCT_RELATED_PRODUCT_CATEGORY('part',$,(#7));
ENDSEC;
END-ISO-10303-21;
